solid OpenSCAD_Model
  facet normal 0 0 -1
    outer loop
      vertex 0.936799 -0.0769024 0
      vertex 0.936799 0.0769024 0
      vertex 0.944881 0 0
    endloop
  endfacet
  facet normal 0 0 -1
    outer loop
      vertex 0.912904 -0.150444 0
      vertex 0.936799 0.0769024 0
      vertex 0.936799 -0.0769024 0
    endloop
  endfacet
  facet normal 0 0 -1
    outer loop
      vertex 0.912904 -0.150444 0
      vertex 0.912904 0.150444 0
      vertex 0.936799 0.0769024 0
    endloop
  endfacet
  facet normal 0 0 -1
    outer loop
      vertex 0.87424 -0.217411 0
      vertex 0.912904 0.150444 0
      vertex 0.912904 -0.150444 0
    endloop
  endfacet
  facet normal 0 0 -1
    outer loop
      vertex 0.87424 -0.217411 0
      vertex 0.87424 0.217411 0
      vertex 0.912904 0.150444 0
    endloop
  endfacet
  facet normal 0 0 -1
    outer loop
      vertex 0.822499 -0.274876 0
      vertex 0.87424 0.217411 0
      vertex 0.87424 -0.217411 0
    endloop
  endfacet
  facet normal 0 0 -1
    outer loop
      vertex 0.822499 -0.274876 0
      vertex 0.822499 0.274876 0
      vertex 0.87424 0.217411 0
    endloop
  endfacet
  facet normal 0 0 -1
    outer loop
      vertex 0.75994 -0.320327 0
      vertex 0.822499 0.274876 0
      vertex 0.822499 -0.274876 0
    endloop
  endfacet
  facet normal 0 0 -1
    outer loop
      vertex 0.75994 -0.320327 0
      vertex 0.75994 0.320327 0
      vertex 0.822499 0.274876 0
    endloop
  endfacet
  facet normal 0 0 -1
    outer loop
      vertex 0.6893 -0.351778 0
      vertex 0.75994 0.320327 0
      vertex 0.75994 -0.320327 0
    endloop
  endfacet
  facet normal 0 0 -1
    outer loop
      vertex 0.6893 -0.351778 0
      vertex 0.6893 0.351778 0
      vertex 0.75994 0.320327 0
    endloop
  endfacet
  facet normal 0 0 -1
    outer loop
      vertex 0.613663 -0.367855 0
      vertex 0.6893 0.351778 0
      vertex 0.6893 -0.351778 0
    endloop
  endfacet
  facet normal 0 0 -1
    outer loop
      vertex 0.613663 -0.367855 0
      vertex 0.613663 0.367855 0
      vertex 0.6893 0.351778 0
    endloop
  endfacet
  facet normal 0 0 -1
    outer loop
      vertex -0.613663 -0.367855 0
      vertex 0.613663 0.367855 0
      vertex 0.613663 -0.367855 0
    endloop
  endfacet
  facet normal 0 0 -1
    outer loop
      vertex -0.613663 -0.367855 0
      vertex -0.613663 0.367855 0
      vertex 0.613663 0.367855 0
    endloop
  endfacet
  facet normal 0 0 -1
    outer loop
      vertex -0.6893 -0.351778 0
      vertex -0.613663 0.367855 0
      vertex -0.613663 -0.367855 0
    endloop
  endfacet
  facet normal 0 0 -1
    outer loop
      vertex -0.6893 -0.351778 0
      vertex -0.6893 0.351778 0
      vertex -0.613663 0.367855 0
    endloop
  endfacet
  facet normal 0 0 -1
    outer loop
      vertex -0.75994 -0.320327 0
      vertex -0.6893 0.351778 0
      vertex -0.6893 -0.351778 0
    endloop
  endfacet
  facet normal 0 0 -1
    outer loop
      vertex -0.75994 -0.320327 0
      vertex -0.75994 0.320327 0
      vertex -0.6893 0.351778 0
    endloop
  endfacet
  facet normal 0 0 -1
    outer loop
      vertex -0.822499 -0.274876 0
      vertex -0.75994 0.320327 0
      vertex -0.75994 -0.320327 0
    endloop
  endfacet
  facet normal 0 0 -1
    outer loop
      vertex -0.822499 -0.274876 0
      vertex -0.822499 0.274876 0
      vertex -0.75994 0.320327 0
    endloop
  endfacet
  facet normal 0 0 -1
    outer loop
      vertex -0.87424 -0.217411 0
      vertex -0.822499 0.274876 0
      vertex -0.822499 -0.274876 0
    endloop
  endfacet
  facet normal 0 0 -1
    outer loop
      vertex -0.87424 -0.217411 0
      vertex -0.87424 0.217411 0
      vertex -0.822499 0.274876 0
    endloop
  endfacet
  facet normal 0 0 -1
    outer loop
      vertex -0.912904 -0.150444 0
      vertex -0.87424 0.217411 0
      vertex -0.87424 -0.217411 0
    endloop
  endfacet
  facet normal 0 0 -1
    outer loop
      vertex -0.912904 -0.150444 0
      vertex -0.912904 0.150444 0
      vertex -0.87424 0.217411 0
    endloop
  endfacet
  facet normal 0 0 -1
    outer loop
      vertex -0.936799 -0.0769024 0
      vertex -0.912904 0.150444 0
      vertex -0.912904 -0.150444 0
    endloop
  endfacet
  facet normal 0 0 -1
    outer loop
      vertex -0.936799 -0.0769024 0
      vertex -0.936799 0.0769024 0
      vertex -0.912904 0.150444 0
    endloop
  endfacet
  facet normal 0 -0 -1
    outer loop
      vertex -0.936799 0.0769024 0
      vertex -0.936799 -0.0769024 0
      vertex -0.944881 0 0
    endloop
  endfacet
  facet normal 0 1 -0
    outer loop
      vertex 0.613663 0.367855 0
      vertex -0.613663 0.367855 0.75
      vertex 0.613663 0.367855 0.75
    endloop
  endfacet
  facet normal 0 1 0
    outer loop
      vertex -0.613663 0.367855 0.75
      vertex 0.613663 0.367855 0
      vertex -0.613663 0.367855 0
    endloop
  endfacet
  facet normal 0.994522 -0.104524 0
    outer loop
      vertex 0.936799 -0.0769024 0.75
      vertex 0.944881 0 0
      vertex 0.944881 0 0.75
    endloop
  endfacet
  facet normal 0.994522 -0.104524 0
    outer loop
      vertex 0.944881 0 0
      vertex 0.936799 -0.0769024 0.75
      vertex 0.936799 -0.0769024 0
    endloop
  endfacet
  facet normal -0.406737 0.913545 0
    outer loop
      vertex -0.6893 0.351778 0
      vertex -0.75994 0.320327 0.75
      vertex -0.6893 0.351778 0.75
    endloop
  endfacet
  facet normal -0.406737 0.913545 0
    outer loop
      vertex -0.75994 0.320327 0.75
      vertex -0.6893 0.351778 0
      vertex -0.75994 0.320327 0
    endloop
  endfacet
  facet normal -0.951056 0.309019 0
    outer loop
      vertex -0.936799 0.0769024 0
      vertex -0.912904 0.150444 0.75
      vertex -0.912904 0.150444 0
    endloop
  endfacet
  facet normal -0.951056 0.309019 0
    outer loop
      vertex -0.912904 0.150444 0.75
      vertex -0.936799 0.0769024 0
      vertex -0.936799 0.0769024 0.75
    endloop
  endfacet
  facet normal 0 -1 0
    outer loop
      vertex -0.613663 -0.367855 0
      vertex 0.613663 -0.367855 0.75
      vertex -0.613663 -0.367855 0.75
    endloop
  endfacet
  facet normal 0 -1 -0
    outer loop
      vertex 0.613663 -0.367855 0.75
      vertex -0.613663 -0.367855 0
      vertex 0.613663 -0.367855 0
    endloop
  endfacet
  facet normal 0.743149 0.669126 0
    outer loop
      vertex 0.87424 0.217411 0.75
      vertex 0.822499 0.274876 0
      vertex 0.822499 0.274876 0.75
    endloop
  endfacet
  facet normal 0.743149 0.669126 0
    outer loop
      vertex 0.822499 0.274876 0
      vertex 0.87424 0.217411 0.75
      vertex 0.87424 0.217411 0
    endloop
  endfacet
  facet normal 0.951056 0.309019 0
    outer loop
      vertex 0.936799 0.0769024 0.75
      vertex 0.912904 0.150444 0
      vertex 0.912904 0.150444 0.75
    endloop
  endfacet
  facet normal 0.951056 0.309019 0
    outer loop
      vertex 0.912904 0.150444 0
      vertex 0.936799 0.0769024 0.75
      vertex 0.936799 0.0769024 0
    endloop
  endfacet
  facet normal 0.587779 0.809021 -0
    outer loop
      vertex 0.822499 0.274876 0
      vertex 0.75994 0.320327 0.75
      vertex 0.822499 0.274876 0.75
    endloop
  endfacet
  facet normal 0.587779 0.809021 0
    outer loop
      vertex 0.75994 0.320327 0.75
      vertex 0.822499 0.274876 0
      vertex 0.75994 0.320327 0
    endloop
  endfacet
  facet normal 0.207911 0.978148 -0
    outer loop
      vertex 0.6893 0.351778 0
      vertex 0.613663 0.367855 0.75
      vertex 0.6893 0.351778 0.75
    endloop
  endfacet
  facet normal 0.207911 0.978148 0
    outer loop
      vertex 0.613663 0.367855 0.75
      vertex 0.6893 0.351778 0
      vertex 0.613663 0.367855 0
    endloop
  endfacet
  facet normal -0.994522 -0.104524 0
    outer loop
      vertex -0.936799 -0.0769024 0
      vertex -0.944881 0 0.75
      vertex -0.944881 0 0
    endloop
  endfacet
  facet normal -0.994522 -0.104524 0
    outer loop
      vertex -0.944881 0 0.75
      vertex -0.936799 -0.0769024 0
      vertex -0.936799 -0.0769024 0.75
    endloop
  endfacet
  facet normal -0.866023 0.500004 0
    outer loop
      vertex -0.912904 0.150444 0
      vertex -0.87424 0.217411 0.75
      vertex -0.87424 0.217411 0
    endloop
  endfacet
  facet normal -0.866023 0.500004 0
    outer loop
      vertex -0.87424 0.217411 0.75
      vertex -0.912904 0.150444 0
      vertex -0.912904 0.150444 0.75
    endloop
  endfacet
  facet normal -0.587779 0.809021 0
    outer loop
      vertex -0.75994 0.320327 0
      vertex -0.822499 0.274876 0.75
      vertex -0.75994 0.320327 0.75
    endloop
  endfacet
  facet normal -0.587779 0.809021 0
    outer loop
      vertex -0.822499 0.274876 0.75
      vertex -0.75994 0.320327 0
      vertex -0.822499 0.274876 0
    endloop
  endfacet
  facet normal -0.207911 0.978148 0
    outer loop
      vertex -0.613663 0.367855 0
      vertex -0.6893 0.351778 0.75
      vertex -0.613663 0.367855 0.75
    endloop
  endfacet
  facet normal -0.207911 0.978148 0
    outer loop
      vertex -0.6893 0.351778 0.75
      vertex -0.613663 0.367855 0
      vertex -0.6893 0.351778 0
    endloop
  endfacet
  facet normal -0.743149 0.669126 0
    outer loop
      vertex -0.87424 0.217411 0
      vertex -0.822499 0.274876 0.75
      vertex -0.822499 0.274876 0
    endloop
  endfacet
  facet normal -0.743149 0.669126 0
    outer loop
      vertex -0.822499 0.274876 0.75
      vertex -0.87424 0.217411 0
      vertex -0.87424 0.217411 0.75
    endloop
  endfacet
  facet normal 0.994522 0.104524 0
    outer loop
      vertex 0.944881 0 0.75
      vertex 0.936799 0.0769024 0
      vertex 0.936799 0.0769024 0.75
    endloop
  endfacet
  facet normal 0.994522 0.104524 0
    outer loop
      vertex 0.936799 0.0769024 0
      vertex 0.944881 0 0.75
      vertex 0.944881 0 0
    endloop
  endfacet
  facet normal 0.207911 -0.978148 0
    outer loop
      vertex 0.613663 -0.367855 0
      vertex 0.6893 -0.351778 0.75
      vertex 0.613663 -0.367855 0.75
    endloop
  endfacet
  facet normal 0.207911 -0.978148 0
    outer loop
      vertex 0.6893 -0.351778 0.75
      vertex 0.613663 -0.367855 0
      vertex 0.6893 -0.351778 0
    endloop
  endfacet
  facet normal 0.406737 -0.913545 0
    outer loop
      vertex 0.6893 -0.351778 0
      vertex 0.75994 -0.320327 0.75
      vertex 0.6893 -0.351778 0.75
    endloop
  endfacet
  facet normal 0.406737 -0.913545 0
    outer loop
      vertex 0.75994 -0.320327 0.75
      vertex 0.6893 -0.351778 0
      vertex 0.75994 -0.320327 0
    endloop
  endfacet
  facet normal 0.587779 -0.809021 0
    outer loop
      vertex 0.75994 -0.320327 0
      vertex 0.822499 -0.274876 0.75
      vertex 0.75994 -0.320327 0.75
    endloop
  endfacet
  facet normal 0.587779 -0.809021 0
    outer loop
      vertex 0.822499 -0.274876 0.75
      vertex 0.75994 -0.320327 0
      vertex 0.822499 -0.274876 0
    endloop
  endfacet
  facet normal 0.866023 -0.500004 0
    outer loop
      vertex 0.87424 -0.217411 0.75
      vertex 0.912904 -0.150444 0
      vertex 0.912904 -0.150444 0.75
    endloop
  endfacet
  facet normal 0.866023 -0.500004 0
    outer loop
      vertex 0.912904 -0.150444 0
      vertex 0.87424 -0.217411 0.75
      vertex 0.87424 -0.217411 0
    endloop
  endfacet
  facet normal -0.951056 -0.309019 0
    outer loop
      vertex -0.912904 -0.150444 0
      vertex -0.936799 -0.0769024 0.75
      vertex -0.936799 -0.0769024 0
    endloop
  endfacet
  facet normal -0.951056 -0.309019 0
    outer loop
      vertex -0.936799 -0.0769024 0.75
      vertex -0.912904 -0.150444 0
      vertex -0.912904 -0.150444 0.75
    endloop
  endfacet
  facet normal -0.207911 -0.978148 0
    outer loop
      vertex -0.6893 -0.351778 0
      vertex -0.613663 -0.367855 0.75
      vertex -0.6893 -0.351778 0.75
    endloop
  endfacet
  facet normal -0.207911 -0.978148 -0
    outer loop
      vertex -0.613663 -0.367855 0.75
      vertex -0.6893 -0.351778 0
      vertex -0.613663 -0.367855 0
    endloop
  endfacet
  facet normal 0.866023 0.500004 0
    outer loop
      vertex 0.912904 0.150444 0.75
      vertex 0.87424 0.217411 0
      vertex 0.87424 0.217411 0.75
    endloop
  endfacet
  facet normal 0.866023 0.500004 0
    outer loop
      vertex 0.87424 0.217411 0
      vertex 0.912904 0.150444 0.75
      vertex 0.912904 0.150444 0
    endloop
  endfacet
  facet normal 0.406737 0.913545 -0
    outer loop
      vertex 0.75994 0.320327 0
      vertex 0.6893 0.351778 0.75
      vertex 0.75994 0.320327 0.75
    endloop
  endfacet
  facet normal 0.406737 0.913545 0
    outer loop
      vertex 0.6893 0.351778 0.75
      vertex 0.75994 0.320327 0
      vertex 0.6893 0.351778 0
    endloop
  endfacet
  facet normal 0 0 1
    outer loop
      vertex 0.73248 0 0.75
      vertex 0.944881 0 0.75
      vertex 0.936799 0.0769024 0.75
    endloop
  endfacet
  facet normal 0 0 1
    outer loop
      vertex 0.729038 0.0327415 0.75
      vertex 0.936799 0.0769024 0.75
      vertex 0.912904 0.150444 0.75
    endloop
  endfacet
  facet normal 0 0 1
    outer loop
      vertex 0.944881 0 0.75
      vertex 0.73248 0 0.75
      vertex 0.936799 -0.0769024 0.75
    endloop
  endfacet
  facet normal 0 0 1
    outer loop
      vertex 0.718865 0.0640526 0.75
      vertex 0.912904 0.150444 0.75
      vertex 0.87424 0.217411 0.75
    endloop
  endfacet
  facet normal -0 0 1
    outer loop
      vertex 0.729038 -0.0327415 0.75
      vertex 0.936799 -0.0769024 0.75
      vertex 0.73248 0 0.75
    endloop
  endfacet
  facet normal 0 0 1
    outer loop
      vertex 0.702404 0.0925646 0.75
      vertex 0.87424 0.217411 0.75
      vertex 0.822499 0.274876 0.75
    endloop
  endfacet
  facet normal 0 0 1
    outer loop
      vertex 0.936799 -0.0769024 0.75
      vertex 0.729038 -0.0327415 0.75
      vertex 0.912904 -0.150444 0.75
    endloop
  endfacet
  facet normal 0 0 1
    outer loop
      vertex 0.680374 0.11703 0.75
      vertex 0.822499 0.274876 0.75
      vertex 0.75994 0.320327 0.75
    endloop
  endfacet
  facet normal -0 0 1
    outer loop
      vertex 0.718865 -0.0640526 0.75
      vertex 0.912904 -0.150444 0.75
      vertex 0.729038 -0.0327415 0.75
    endloop
  endfacet
  facet normal 0 0 1
    outer loop
      vertex 0.912904 -0.150444 0.75
      vertex 0.718865 -0.0640526 0.75
      vertex 0.87424 -0.217411 0.75
    endloop
  endfacet
  facet normal 0 0 1
    outer loop
      vertex 0.936799 0.0769024 0.75
      vertex 0.729038 0.0327415 0.75
      vertex 0.73248 0 0.75
    endloop
  endfacet
  facet normal 0 0 1
    outer loop
      vertex 0.912904 0.150444 0.75
      vertex 0.718865 0.0640526 0.75
      vertex 0.729038 0.0327415 0.75
    endloop
  endfacet
  facet normal 0 0 1
    outer loop
      vertex 0.87424 0.217411 0.75
      vertex 0.702404 0.0925646 0.75
      vertex 0.718865 0.0640526 0.75
    endloop
  endfacet
  facet normal 0 0 1
    outer loop
      vertex 0.65374 0.136382 0.75
      vertex 0.75994 0.320327 0.75
      vertex 0.6893 0.351778 0.75
    endloop
  endfacet
  facet normal 0 0 1
    outer loop
      vertex 0.822499 0.274876 0.75
      vertex 0.680374 0.11703 0.75
      vertex 0.702404 0.0925646 0.75
    endloop
  endfacet
  facet normal 0 0 1
    outer loop
      vertex 0.75994 0.320327 0.75
      vertex 0.65374 0.136382 0.75
      vertex 0.680374 0.11703 0.75
    endloop
  endfacet
  facet normal 0 0 1
    outer loop
      vertex 0.6893 0.351778 0.75
      vertex 0.623664 0.149773 0.75
      vertex 0.65374 0.136382 0.75
    endloop
  endfacet
  facet normal 0 0 1
    outer loop
      vertex 0.613663 0.367855 0.75
      vertex 0.623664 0.149773 0.75
      vertex 0.6893 0.351778 0.75
    endloop
  endfacet
  facet normal 0 0 1
    outer loop
      vertex 0.613663 0.367855 0.75
      vertex 0.591461 0.156617 0.75
      vertex 0.623664 0.149773 0.75
    endloop
  endfacet
  facet normal 0 0 1
    outer loop
      vertex 0.613663 0.367855 0.75
      vertex 0.558538 0.156617 0.75
      vertex 0.591461 0.156617 0.75
    endloop
  endfacet
  facet normal 0 0 1
    outer loop
      vertex 0.613663 0.367855 0.75
      vertex 0.526336 0.149773 0.75
      vertex 0.558538 0.156617 0.75
    endloop
  endfacet
  facet normal 0 0 1
    outer loop
      vertex 0.613663 0.367855 0.75
      vertex 0.49626 0.136382 0.75
      vertex 0.526336 0.149773 0.75
    endloop
  endfacet
  facet normal -0 0 1
    outer loop
      vertex 0.133825 0.148628 0.75
      vertex 0.49626 0.136382 0.75
      vertex 0.613663 0.367855 0.75
    endloop
  endfacet
  facet normal 0 0 1
    outer loop
      vertex 0.49626 0.136382 0.75
      vertex 0.133825 0.148628 0.75
      vertex 0.469625 0.11703 0.75
    endloop
  endfacet
  facet normal 0 0 1
    outer loop
      vertex 0.42096 0.0327415 0.75
      vertex 0.2 0 0.75
      vertex 0.417519 0 0.75
    endloop
  endfacet
  facet normal -0 0 1
    outer loop
      vertex 0.195629 0.0415821 0.75
      vertex 0.42096 0.0327415 0.75
      vertex 0.431134 0.0640526 0.75
    endloop
  endfacet
  facet normal -0 0 1
    outer loop
      vertex 0.182709 0.0813465 0.75
      vertex 0.431134 0.0640526 0.75
      vertex 0.447596 0.0925646 0.75
    endloop
  endfacet
  facet normal -0 -0 1
    outer loop
      vertex 0.161803 0.117557 0.75
      vertex 0.469625 0.11703 0.75
      vertex 0.133825 0.148628 0.75
    endloop
  endfacet
  facet normal 0 0 1
    outer loop
      vertex 0.42096 0.0327415 0.75
      vertex 0.195629 0.0415821 0.75
      vertex 0.2 0 0.75
    endloop
  endfacet
  facet normal 0 0 1
    outer loop
      vertex 0.431134 0.0640526 0.75
      vertex 0.182709 0.0813465 0.75
      vertex 0.195629 0.0415821 0.75
    endloop
  endfacet
  facet normal 0 0 1
    outer loop
      vertex 0.447596 0.0925646 0.75
      vertex 0.161803 0.117557 0.75
      vertex 0.182709 0.0813465 0.75
    endloop
  endfacet
  facet normal 0 0 1
    outer loop
      vertex 0.469625 0.11703 0.75
      vertex 0.161803 0.117557 0.75
      vertex 0.447596 0.0925646 0.75
    endloop
  endfacet
  facet normal 0 0 1
    outer loop
      vertex 0.613663 0.367855 0.75
      vertex 0.0999994 0.173204 0.75
      vertex 0.133825 0.148628 0.75
    endloop
  endfacet
  facet normal 0 0 1
    outer loop
      vertex 0.613663 0.367855 0.75
      vertex 0.0618029 0.190211 0.75
      vertex 0.0999994 0.173204 0.75
    endloop
  endfacet
  facet normal 0 0 1
    outer loop
      vertex 0.613663 0.367855 0.75
      vertex 0.0209055 0.198904 0.75
      vertex 0.0618029 0.190211 0.75
    endloop
  endfacet
  facet normal 0 0 1
    outer loop
      vertex 0.613663 0.367855 0.75
      vertex -0.0209055 0.198904 0.75
      vertex 0.0209055 0.198904 0.75
    endloop
  endfacet
  facet normal -0 0 1
    outer loop
      vertex -0.613663 0.367855 0.75
      vertex -0.0209055 0.198904 0.75
      vertex 0.613663 0.367855 0.75
    endloop
  endfacet
  facet normal -0 0 1
    outer loop
      vertex -0.42096 0.0327415 0.75
      vertex -0.2 0 0.75
      vertex -0.195629 0.0415821 0.75
    endloop
  endfacet
  facet normal -0 0 1
    outer loop
      vertex -0.431134 0.0640526 0.75
      vertex -0.195629 0.0415821 0.75
      vertex -0.182709 0.0813465 0.75
    endloop
  endfacet
  facet normal -0 0 1
    outer loop
      vertex -0.447596 0.0925646 0.75
      vertex -0.182709 0.0813465 0.75
      vertex -0.161803 0.117557 0.75
    endloop
  endfacet
  facet normal 0 0 1
    outer loop
      vertex -0.469625 0.11703 0.75
      vertex -0.161803 0.117557 0.75
      vertex -0.133825 0.148628 0.75
    endloop
  endfacet
  facet normal 0 0 1
    outer loop
      vertex -0.613663 0.367855 0.75
      vertex -0.133825 0.148628 0.75
      vertex -0.0999994 0.173204 0.75
    endloop
  endfacet
  facet normal 0 0 1
    outer loop
      vertex -0.2 0 0.75
      vertex -0.42096 0.0327415 0.75
      vertex -0.417519 0 0.75
    endloop
  endfacet
  facet normal 0 0 1
    outer loop
      vertex -0.613663 0.367855 0.75
      vertex -0.0999994 0.173204 0.75
      vertex -0.0618029 0.190211 0.75
    endloop
  endfacet
  facet normal 0 0 1
    outer loop
      vertex -0.195629 0.0415821 0.75
      vertex -0.431134 0.0640526 0.75
      vertex -0.42096 0.0327415 0.75
    endloop
  endfacet
  facet normal 0 0 1
    outer loop
      vertex -0.182709 0.0813465 0.75
      vertex -0.447596 0.0925646 0.75
      vertex -0.431134 0.0640526 0.75
    endloop
  endfacet
  facet normal 0 0 1
    outer loop
      vertex -0.0209055 0.198904 0.75
      vertex -0.613663 0.367855 0.75
      vertex -0.0618029 0.190211 0.75
    endloop
  endfacet
  facet normal 0 0 1
    outer loop
      vertex -0.161803 0.117557 0.75
      vertex -0.469625 0.11703 0.75
      vertex -0.447596 0.0925646 0.75
    endloop
  endfacet
  facet normal 0 0 1
    outer loop
      vertex -0.133825 0.148628 0.75
      vertex -0.613663 0.367855 0.75
      vertex -0.49626 0.136382 0.75
    endloop
  endfacet
  facet normal 0 0 1
    outer loop
      vertex -0.133825 0.148628 0.75
      vertex -0.49626 0.136382 0.75
      vertex -0.469625 0.11703 0.75
    endloop
  endfacet
  facet normal 0 0 1
    outer loop
      vertex -0.49626 0.136382 0.75
      vertex -0.613663 0.367855 0.75
      vertex -0.526336 0.149773 0.75
    endloop
  endfacet
  facet normal 0 0 1
    outer loop
      vertex -0.526336 0.149773 0.75
      vertex -0.613663 0.367855 0.75
      vertex -0.558538 0.156617 0.75
    endloop
  endfacet
  facet normal 0 0 1
    outer loop
      vertex -0.558538 0.156617 0.75
      vertex -0.613663 0.367855 0.75
      vertex -0.591461 0.156617 0.75
    endloop
  endfacet
  facet normal 0 0 1
    outer loop
      vertex -0.613663 0.367855 0.75
      vertex -0.623664 0.149773 0.75
      vertex -0.591461 0.156617 0.75
    endloop
  endfacet
  facet normal -0 0 1
    outer loop
      vertex -0.6893 0.351778 0.75
      vertex -0.623664 0.149773 0.75
      vertex -0.613663 0.367855 0.75
    endloop
  endfacet
  facet normal 0 0 1
    outer loop
      vertex -0.623664 0.149773 0.75
      vertex -0.6893 0.351778 0.75
      vertex -0.65374 0.136382 0.75
    endloop
  endfacet
  facet normal -0 0 1
    outer loop
      vertex -0.75994 0.320327 0.75
      vertex -0.65374 0.136382 0.75
      vertex -0.6893 0.351778 0.75
    endloop
  endfacet
  facet normal 0 0 1
    outer loop
      vertex -0.65374 0.136382 0.75
      vertex -0.75994 0.320327 0.75
      vertex -0.680374 0.11703 0.75
    endloop
  endfacet
  facet normal -0 0 1
    outer loop
      vertex -0.822499 0.274876 0.75
      vertex -0.680374 0.11703 0.75
      vertex -0.75994 0.320327 0.75
    endloop
  endfacet
  facet normal 0 0 1
    outer loop
      vertex -0.680374 0.11703 0.75
      vertex -0.822499 0.274876 0.75
      vertex -0.702404 0.0925646 0.75
    endloop
  endfacet
  facet normal 0 0 1
    outer loop
      vertex -0.702404 0.0925646 0.75
      vertex -0.87424 0.217411 0.75
      vertex -0.718865 0.0640526 0.75
    endloop
  endfacet
  facet normal -0 0 1
    outer loop
      vertex -0.87424 0.217411 0.75
      vertex -0.702404 0.0925646 0.75
      vertex -0.822499 0.274876 0.75
    endloop
  endfacet
  facet normal -0 0 1
    outer loop
      vertex 0.702404 -0.0925646 0.75
      vertex 0.87424 -0.217411 0.75
      vertex 0.718865 -0.0640526 0.75
    endloop
  endfacet
  facet normal 0 0 1
    outer loop
      vertex 0.87424 -0.217411 0.75
      vertex 0.702404 -0.0925646 0.75
      vertex 0.822499 -0.274876 0.75
    endloop
  endfacet
  facet normal -0 0 1
    outer loop
      vertex 0.680374 -0.11703 0.75
      vertex 0.822499 -0.274876 0.75
      vertex 0.702404 -0.0925646 0.75
    endloop
  endfacet
  facet normal 0 0 1
    outer loop
      vertex 0.822499 -0.274876 0.75
      vertex 0.680374 -0.11703 0.75
      vertex 0.75994 -0.320327 0.75
    endloop
  endfacet
  facet normal -0 0 1
    outer loop
      vertex 0.65374 -0.136382 0.75
      vertex 0.75994 -0.320327 0.75
      vertex 0.680374 -0.11703 0.75
    endloop
  endfacet
  facet normal 0 0 1
    outer loop
      vertex 0.75994 -0.320327 0.75
      vertex 0.65374 -0.136382 0.75
      vertex 0.6893 -0.351778 0.75
    endloop
  endfacet
  facet normal -0 0 1
    outer loop
      vertex 0.623664 -0.149773 0.75
      vertex 0.6893 -0.351778 0.75
      vertex 0.65374 -0.136382 0.75
    endloop
  endfacet
  facet normal 0 0 1
    outer loop
      vertex 0.623664 -0.149773 0.75
      vertex 0.613663 -0.367855 0.75
      vertex 0.6893 -0.351778 0.75
    endloop
  endfacet
  facet normal -0 0 1
    outer loop
      vertex 0.591461 -0.156617 0.75
      vertex 0.613663 -0.367855 0.75
      vertex 0.623664 -0.149773 0.75
    endloop
  endfacet
  facet normal -0 0 1
    outer loop
      vertex 0.558538 -0.156617 0.75
      vertex 0.613663 -0.367855 0.75
      vertex 0.591461 -0.156617 0.75
    endloop
  endfacet
  facet normal 0 0 1
    outer loop
      vertex 0.526336 -0.149773 0.75
      vertex 0.613663 -0.367855 0.75
      vertex 0.558538 -0.156617 0.75
    endloop
  endfacet
  facet normal 0 0 1
    outer loop
      vertex 0.49626 -0.136382 0.75
      vertex 0.613663 -0.367855 0.75
      vertex 0.526336 -0.149773 0.75
    endloop
  endfacet
  facet normal 0 0 1
    outer loop
      vertex 0.133825 -0.148628 0.75
      vertex 0.49626 -0.136382 0.75
      vertex 0.469625 -0.11703 0.75
    endloop
  endfacet
  facet normal 0 0 1
    outer loop
      vertex 0.161803 -0.117557 0.75
      vertex 0.469625 -0.11703 0.75
      vertex 0.447596 -0.0925646 0.75
    endloop
  endfacet
  facet normal -0 0 1
    outer loop
      vertex 0.2 0 0.75
      vertex 0.42096 -0.0327415 0.75
      vertex 0.417519 0 0.75
    endloop
  endfacet
  facet normal 0 0 1
    outer loop
      vertex 0.195629 -0.0415821 0.75
      vertex 0.42096 -0.0327415 0.75
      vertex 0.2 0 0.75
    endloop
  endfacet
  facet normal 0 0 1
    outer loop
      vertex 0.42096 -0.0327415 0.75
      vertex 0.195629 -0.0415821 0.75
      vertex 0.431134 -0.0640526 0.75
    endloop
  endfacet
  facet normal 0 0 1
    outer loop
      vertex 0.182709 -0.0813465 0.75
      vertex 0.431134 -0.0640526 0.75
      vertex 0.195629 -0.0415821 0.75
    endloop
  endfacet
  facet normal 0 0 1
    outer loop
      vertex 0.431134 -0.0640526 0.75
      vertex 0.182709 -0.0813465 0.75
      vertex 0.447596 -0.0925646 0.75
    endloop
  endfacet
  facet normal 0 0 1
    outer loop
      vertex 0.161803 -0.117557 0.75
      vertex 0.447596 -0.0925646 0.75
      vertex 0.182709 -0.0813465 0.75
    endloop
  endfacet
  facet normal 0 0 1
    outer loop
      vertex 0.469625 -0.11703 0.75
      vertex 0.161803 -0.117557 0.75
      vertex 0.133825 -0.148628 0.75
    endloop
  endfacet
  facet normal 0 0 1
    outer loop
      vertex 0.49626 -0.136382 0.75
      vertex 0.133825 -0.148628 0.75
      vertex 0.613663 -0.367855 0.75
    endloop
  endfacet
  facet normal -0 0 1
    outer loop
      vertex 0.0999994 -0.173204 0.75
      vertex 0.613663 -0.367855 0.75
      vertex 0.133825 -0.148628 0.75
    endloop
  endfacet
  facet normal -0 0 1
    outer loop
      vertex 0.0618029 -0.190211 0.75
      vertex 0.613663 -0.367855 0.75
      vertex 0.0999994 -0.173204 0.75
    endloop
  endfacet
  facet normal -0 0 1
    outer loop
      vertex 0.0209055 -0.198904 0.75
      vertex 0.613663 -0.367855 0.75
      vertex 0.0618029 -0.190211 0.75
    endloop
  endfacet
  facet normal -0 0 1
    outer loop
      vertex -0.0209055 -0.198904 0.75
      vertex 0.613663 -0.367855 0.75
      vertex 0.0209055 -0.198904 0.75
    endloop
  endfacet
  facet normal 0 0 1
    outer loop
      vertex -0.613663 -0.367855 0.75
      vertex -0.0209055 -0.198904 0.75
      vertex -0.0618029 -0.190211 0.75
    endloop
  endfacet
  facet normal 0 0 1
    outer loop
      vertex -0.42096 -0.0327415 0.75
      vertex -0.2 0 0.75
      vertex -0.417519 0 0.75
    endloop
  endfacet
  facet normal 0 0 1
    outer loop
      vertex -0.2 0 0.75
      vertex -0.42096 -0.0327415 0.75
      vertex -0.195629 -0.0415821 0.75
    endloop
  endfacet
  facet normal 0 0 1
    outer loop
      vertex -0.431134 -0.0640526 0.75
      vertex -0.195629 -0.0415821 0.75
      vertex -0.42096 -0.0327415 0.75
    endloop
  endfacet
  facet normal 0 0 1
    outer loop
      vertex -0.195629 -0.0415821 0.75
      vertex -0.431134 -0.0640526 0.75
      vertex -0.182709 -0.0813465 0.75
    endloop
  endfacet
  facet normal 0 0 1
    outer loop
      vertex -0.447596 -0.0925646 0.75
      vertex -0.182709 -0.0813465 0.75
      vertex -0.431134 -0.0640526 0.75
    endloop
  endfacet
  facet normal 0 0 1
    outer loop
      vertex -0.182709 -0.0813465 0.75
      vertex -0.447596 -0.0925646 0.75
      vertex -0.161803 -0.117557 0.75
    endloop
  endfacet
  facet normal -0 0 1
    outer loop
      vertex -0.469625 -0.11703 0.75
      vertex -0.161803 -0.117557 0.75
      vertex -0.447596 -0.0925646 0.75
    endloop
  endfacet
  facet normal 0 0 1
    outer loop
      vertex -0.161803 -0.117557 0.75
      vertex -0.469625 -0.11703 0.75
      vertex -0.133825 -0.148628 0.75
    endloop
  endfacet
  facet normal -0 0 1
    outer loop
      vertex -0.49626 -0.136382 0.75
      vertex -0.133825 -0.148628 0.75
      vertex -0.469625 -0.11703 0.75
    endloop
  endfacet
  facet normal 0 0 1
    outer loop
      vertex -0.613663 -0.367855 0.75
      vertex -0.133825 -0.148628 0.75
      vertex -0.49626 -0.136382 0.75
    endloop
  endfacet
  facet normal 0 0 1
    outer loop
      vertex -0.133825 -0.148628 0.75
      vertex -0.613663 -0.367855 0.75
      vertex -0.0999994 -0.173204 0.75
    endloop
  endfacet
  facet normal 0 0 1
    outer loop
      vertex -0.0999994 -0.173204 0.75
      vertex -0.613663 -0.367855 0.75
      vertex -0.0618029 -0.190211 0.75
    endloop
  endfacet
  facet normal 0 0 1
    outer loop
      vertex -0.613663 -0.367855 0.75
      vertex -0.49626 -0.136382 0.75
      vertex -0.526336 -0.149773 0.75
    endloop
  endfacet
  facet normal 0 0 1
    outer loop
      vertex -0.613663 -0.367855 0.75
      vertex -0.526336 -0.149773 0.75
      vertex -0.558538 -0.156617 0.75
    endloop
  endfacet
  facet normal 0 0 1
    outer loop
      vertex -0.613663 -0.367855 0.75
      vertex -0.558538 -0.156617 0.75
      vertex -0.591461 -0.156617 0.75
    endloop
  endfacet
  facet normal 0 0 1
    outer loop
      vertex -0.0209055 -0.198904 0.75
      vertex -0.613663 -0.367855 0.75
      vertex 0.613663 -0.367855 0.75
    endloop
  endfacet
  facet normal 0 0 1
    outer loop
      vertex -0.623664 -0.149773 0.75
      vertex -0.613663 -0.367855 0.75
      vertex -0.591461 -0.156617 0.75
    endloop
  endfacet
  facet normal 0 0 1
    outer loop
      vertex -0.6893 -0.351778 0.75
      vertex -0.623664 -0.149773 0.75
      vertex -0.65374 -0.136382 0.75
    endloop
  endfacet
  facet normal 0 0 1
    outer loop
      vertex -0.75994 -0.320327 0.75
      vertex -0.65374 -0.136382 0.75
      vertex -0.680374 -0.11703 0.75
    endloop
  endfacet
  facet normal 0 0 1
    outer loop
      vertex -0.623664 -0.149773 0.75
      vertex -0.6893 -0.351778 0.75
      vertex -0.613663 -0.367855 0.75
    endloop
  endfacet
  facet normal 0 0 1
    outer loop
      vertex -0.822499 -0.274876 0.75
      vertex -0.680374 -0.11703 0.75
      vertex -0.702404 -0.0925646 0.75
    endloop
  endfacet
  facet normal 0 0 1
    outer loop
      vertex -0.87424 -0.217411 0.75
      vertex -0.702404 -0.0925646 0.75
      vertex -0.718865 -0.0640526 0.75
    endloop
  endfacet
  facet normal 0 0 1
    outer loop
      vertex -0.912904 -0.150444 0.75
      vertex -0.718865 -0.0640526 0.75
      vertex -0.729038 -0.0327415 0.75
    endloop
  endfacet
  facet normal 0 0 1
    outer loop
      vertex -0.65374 -0.136382 0.75
      vertex -0.75994 -0.320327 0.75
      vertex -0.6893 -0.351778 0.75
    endloop
  endfacet
  facet normal 0 0 1
    outer loop
      vertex -0.936799 -0.0769024 0.75
      vertex -0.729038 -0.0327415 0.75
      vertex -0.73248 0 0.75
    endloop
  endfacet
  facet normal -0 0 1
    outer loop
      vertex -0.912904 0.150444 0.75
      vertex -0.718865 0.0640526 0.75
      vertex -0.87424 0.217411 0.75
    endloop
  endfacet
  facet normal 0 0 1
    outer loop
      vertex -0.718865 0.0640526 0.75
      vertex -0.912904 0.150444 0.75
      vertex -0.729038 0.0327415 0.75
    endloop
  endfacet
  facet normal 0 0 1
    outer loop
      vertex -0.680374 -0.11703 0.75
      vertex -0.822499 -0.274876 0.75
      vertex -0.75994 -0.320327 0.75
    endloop
  endfacet
  facet normal -0 0 1
    outer loop
      vertex -0.936799 0.0769024 0.75
      vertex -0.729038 0.0327415 0.75
      vertex -0.912904 0.150444 0.75
    endloop
  endfacet
  facet normal 0 0 1
    outer loop
      vertex -0.702404 -0.0925646 0.75
      vertex -0.87424 -0.217411 0.75
      vertex -0.822499 -0.274876 0.75
    endloop
  endfacet
  facet normal 0 0 1
    outer loop
      vertex -0.729038 0.0327415 0.75
      vertex -0.936799 0.0769024 0.75
      vertex -0.73248 0 0.75
    endloop
  endfacet
  facet normal 0 0 1
    outer loop
      vertex -0.718865 -0.0640526 0.75
      vertex -0.912904 -0.150444 0.75
      vertex -0.87424 -0.217411 0.75
    endloop
  endfacet
  facet normal 0 0 1
    outer loop
      vertex -0.944881 0 0.75
      vertex -0.73248 0 0.75
      vertex -0.936799 0.0769024 0.75
    endloop
  endfacet
  facet normal 0 0 1
    outer loop
      vertex -0.729038 -0.0327415 0.75
      vertex -0.936799 -0.0769024 0.75
      vertex -0.912904 -0.150444 0.75
    endloop
  endfacet
  facet normal 0 0 1
    outer loop
      vertex -0.73248 0 0.75
      vertex -0.944881 0 0.75
      vertex -0.936799 -0.0769024 0.75
    endloop
  endfacet
  facet normal -0.994522 0.104524 0
    outer loop
      vertex -0.944881 0 0
      vertex -0.936799 0.0769024 0.75
      vertex -0.936799 0.0769024 0
    endloop
  endfacet
  facet normal -0.994522 0.104524 0
    outer loop
      vertex -0.936799 0.0769024 0.75
      vertex -0.944881 0 0
      vertex -0.944881 0 0.75
    endloop
  endfacet
  facet normal 0.743149 -0.669126 0
    outer loop
      vertex 0.822499 -0.274876 0.75
      vertex 0.87424 -0.217411 0
      vertex 0.87424 -0.217411 0.75
    endloop
  endfacet
  facet normal 0.743149 -0.669126 0
    outer loop
      vertex 0.87424 -0.217411 0
      vertex 0.822499 -0.274876 0.75
      vertex 0.822499 -0.274876 0
    endloop
  endfacet
  facet normal 0.951056 -0.309019 0
    outer loop
      vertex 0.912904 -0.150444 0.75
      vertex 0.936799 -0.0769024 0
      vertex 0.936799 -0.0769024 0.75
    endloop
  endfacet
  facet normal 0.951056 -0.309019 0
    outer loop
      vertex 0.936799 -0.0769024 0
      vertex 0.912904 -0.150444 0.75
      vertex 0.912904 -0.150444 0
    endloop
  endfacet
  facet normal -0.866023 -0.500004 0
    outer loop
      vertex -0.87424 -0.217411 0
      vertex -0.912904 -0.150444 0.75
      vertex -0.912904 -0.150444 0
    endloop
  endfacet
  facet normal -0.866023 -0.500004 0
    outer loop
      vertex -0.912904 -0.150444 0.75
      vertex -0.87424 -0.217411 0
      vertex -0.87424 -0.217411 0.75
    endloop
  endfacet
  facet normal -0.587779 -0.809021 0
    outer loop
      vertex -0.822499 -0.274876 0
      vertex -0.75994 -0.320327 0.75
      vertex -0.822499 -0.274876 0.75
    endloop
  endfacet
  facet normal -0.587779 -0.809021 -0
    outer loop
      vertex -0.75994 -0.320327 0.75
      vertex -0.822499 -0.274876 0
      vertex -0.75994 -0.320327 0
    endloop
  endfacet
  facet normal -0.743149 -0.669126 0
    outer loop
      vertex -0.822499 -0.274876 0
      vertex -0.87424 -0.217411 0.75
      vertex -0.87424 -0.217411 0
    endloop
  endfacet
  facet normal -0.743149 -0.669126 0
    outer loop
      vertex -0.87424 -0.217411 0.75
      vertex -0.822499 -0.274876 0
      vertex -0.822499 -0.274876 0.75
    endloop
  endfacet
  facet normal -0.406737 -0.913545 0
    outer loop
      vertex -0.75994 -0.320327 0
      vertex -0.6893 -0.351778 0.75
      vertex -0.75994 -0.320327 0.75
    endloop
  endfacet
  facet normal -0.406737 -0.913545 -0
    outer loop
      vertex -0.6893 -0.351778 0.75
      vertex -0.75994 -0.320327 0
      vertex -0.6893 -0.351778 0
    endloop
  endfacet
  facet normal -0.866026 -0.499999 0
    outer loop
      vertex 0.718865 0.0640526 0.25
      vertex 0.702404 0.0925646 0.75
      vertex 0.702404 0.0925646 0.25
    endloop
  endfacet
  facet normal -0.866026 -0.499999 0
    outer loop
      vertex 0.702404 0.0925646 0.75
      vertex 0.718865 0.0640526 0.25
      vertex 0.718865 0.0640526 0.75
    endloop
  endfacet
  facet normal 0.951055 -0.309023 0
    outer loop
      vertex 0.42096 0.0327415 0.75
      vertex 0.431134 0.0640526 0.25
      vertex 0.431134 0.0640526 0.75
    endloop
  endfacet
  facet normal 0.951055 -0.309023 0
    outer loop
      vertex 0.431134 0.0640526 0.25
      vertex 0.42096 0.0327415 0.75
      vertex 0.42096 0.0327415 0.25
    endloop
  endfacet
  facet normal -0.74313 -0.669147 0
    outer loop
      vertex 0.702404 0.0925646 0.25
      vertex 0.680374 0.11703 0.75
      vertex 0.680374 0.11703 0.25
    endloop
  endfacet
  facet normal -0.74313 -0.669147 0
    outer loop
      vertex 0.680374 0.11703 0.75
      vertex 0.702404 0.0925646 0.25
      vertex 0.702404 0.0925646 0.75
    endloop
  endfacet
  facet normal -0.406732 -0.913547 0
    outer loop
      vertex 0.623664 0.149773 0.25
      vertex 0.65374 0.136382 0.75
      vertex 0.623664 0.149773 0.75
    endloop
  endfacet
  facet normal -0.406732 -0.913547 -0
    outer loop
      vertex 0.65374 0.136382 0.75
      vertex 0.623664 0.149773 0.25
      vertex 0.65374 0.136382 0.25
    endloop
  endfacet
  facet normal 0.406732 -0.913547 0
    outer loop
      vertex 0.49626 0.136382 0.25
      vertex 0.526336 0.149773 0.75
      vertex 0.49626 0.136382 0.75
    endloop
  endfacet
  facet normal 0.406732 -0.913547 0
    outer loop
      vertex 0.526336 0.149773 0.75
      vertex 0.49626 0.136382 0.25
      vertex 0.526336 0.149773 0.25
    endloop
  endfacet
  facet normal 0.866026 -0.499999 0
    outer loop
      vertex 0.431134 0.0640526 0.75
      vertex 0.447596 0.0925646 0.25
      vertex 0.447596 0.0925646 0.75
    endloop
  endfacet
  facet normal 0.866026 -0.499999 0
    outer loop
      vertex 0.447596 0.0925646 0.25
      vertex 0.431134 0.0640526 0.75
      vertex 0.431134 0.0640526 0.25
    endloop
  endfacet
  facet normal 0.587793 -0.809012 0
    outer loop
      vertex 0.469625 0.11703 0.25
      vertex 0.49626 0.136382 0.75
      vertex 0.469625 0.11703 0.75
    endloop
  endfacet
  facet normal 0.587793 -0.809012 0
    outer loop
      vertex 0.49626 0.136382 0.75
      vertex 0.469625 0.11703 0.25
      vertex 0.49626 0.136382 0.25
    endloop
  endfacet
  facet normal -0.99452 0.104545 0
    outer loop
      vertex 0.729038 -0.0327415 0.25
      vertex 0.73248 0 0.75
      vertex 0.73248 0 0.25
    endloop
  endfacet
  facet normal -0.99452 0.104545 0
    outer loop
      vertex 0.73248 0 0.75
      vertex 0.729038 -0.0327415 0.25
      vertex 0.729038 -0.0327415 0.75
    endloop
  endfacet
  facet normal -0.587806 -0.809002 0
    outer loop
      vertex 0.65374 0.136382 0.25
      vertex 0.680374 0.11703 0.75
      vertex 0.65374 0.136382 0.75
    endloop
  endfacet
  facet normal -0.587806 -0.809002 -0
    outer loop
      vertex 0.680374 0.11703 0.75
      vertex 0.65374 0.136382 0.25
      vertex 0.680374 0.11703 0.25
    endloop
  endfacet
  facet normal 0 -1 0
    outer loop
      vertex 0.558538 0.156617 0.25
      vertex 0.591461 0.156617 0.75
      vertex 0.558538 0.156617 0.75
    endloop
  endfacet
  facet normal 0 -1 -0
    outer loop
      vertex 0.591461 0.156617 0.75
      vertex 0.558538 0.156617 0.25
      vertex 0.591461 0.156617 0.25
    endloop
  endfacet
  facet normal 0.99452 -0.104545 0
    outer loop
      vertex 0.417519 0 0.75
      vertex 0.42096 0.0327415 0.25
      vertex 0.42096 0.0327415 0.75
    endloop
  endfacet
  facet normal 0.99452 -0.104545 0
    outer loop
      vertex 0.42096 0.0327415 0.25
      vertex 0.417519 0 0.75
      vertex 0.417519 0 0.25
    endloop
  endfacet
  facet normal 0.743144 -0.669131 0
    outer loop
      vertex 0.447596 0.0925646 0.75
      vertex 0.469625 0.11703 0.25
      vertex 0.469625 0.11703 0.75
    endloop
  endfacet
  facet normal 0.743144 -0.669131 0
    outer loop
      vertex 0.469625 0.11703 0.25
      vertex 0.447596 0.0925646 0.75
      vertex 0.447596 0.0925646 0.25
    endloop
  endfacet
  facet normal 0.207901 -0.97815 0
    outer loop
      vertex 0.526336 0.149773 0.25
      vertex 0.558538 0.156617 0.75
      vertex 0.526336 0.149773 0.75
    endloop
  endfacet
  facet normal 0.207901 -0.97815 0
    outer loop
      vertex 0.558538 0.156617 0.75
      vertex 0.526336 0.149773 0.25
      vertex 0.558538 0.156617 0.25
    endloop
  endfacet
  facet normal -0.99452 -0.104545 0
    outer loop
      vertex 0.73248 0 0.25
      vertex 0.729038 0.0327415 0.75
      vertex 0.729038 0.0327415 0.25
    endloop
  endfacet
  facet normal -0.99452 -0.104545 0
    outer loop
      vertex 0.729038 0.0327415 0.75
      vertex 0.73248 0 0.25
      vertex 0.73248 0 0.75
    endloop
  endfacet
  facet normal 0.207901 0.97815 -0
    outer loop
      vertex 0.558538 -0.156617 0.25
      vertex 0.526336 -0.149773 0.75
      vertex 0.558538 -0.156617 0.75
    endloop
  endfacet
  facet normal 0.207901 0.97815 0
    outer loop
      vertex 0.526336 -0.149773 0.75
      vertex 0.558538 -0.156617 0.25
      vertex 0.526336 -0.149773 0.25
    endloop
  endfacet
  facet normal -0.587806 0.809002 0
    outer loop
      vertex 0.680374 -0.11703 0.25
      vertex 0.65374 -0.136382 0.75
      vertex 0.680374 -0.11703 0.75
    endloop
  endfacet
  facet normal -0.587806 0.809002 0
    outer loop
      vertex 0.65374 -0.136382 0.75
      vertex 0.680374 -0.11703 0.25
      vertex 0.65374 -0.136382 0.25
    endloop
  endfacet
  facet normal -0.951063 -0.308997 0
    outer loop
      vertex 0.729038 0.0327415 0.25
      vertex 0.718865 0.0640526 0.75
      vertex 0.718865 0.0640526 0.25
    endloop
  endfacet
  facet normal -0.951063 -0.308997 0
    outer loop
      vertex 0.718865 0.0640526 0.75
      vertex 0.729038 0.0327415 0.25
      vertex 0.729038 0.0327415 0.75
    endloop
  endfacet
  facet normal -0.207901 -0.97815 0
    outer loop
      vertex 0.591461 0.156617 0.25
      vertex 0.623664 0.149773 0.75
      vertex 0.591461 0.156617 0.75
    endloop
  endfacet
  facet normal -0.207901 -0.97815 -0
    outer loop
      vertex 0.623664 0.149773 0.75
      vertex 0.591461 0.156617 0.25
      vertex 0.623664 0.149773 0.25
    endloop
  endfacet
  facet normal -0.951063 0.308997 0
    outer loop
      vertex 0.718865 -0.0640526 0.25
      vertex 0.729038 -0.0327415 0.75
      vertex 0.729038 -0.0327415 0.25
    endloop
  endfacet
  facet normal -0.951063 0.308997 0
    outer loop
      vertex 0.729038 -0.0327415 0.75
      vertex 0.718865 -0.0640526 0.25
      vertex 0.718865 -0.0640526 0.75
    endloop
  endfacet
  facet normal -0.866026 0.499999 0
    outer loop
      vertex 0.702404 -0.0925646 0.25
      vertex 0.718865 -0.0640526 0.75
      vertex 0.718865 -0.0640526 0.25
    endloop
  endfacet
  facet normal -0.866026 0.499999 0
    outer loop
      vertex 0.718865 -0.0640526 0.75
      vertex 0.702404 -0.0925646 0.25
      vertex 0.702404 -0.0925646 0.75
    endloop
  endfacet
  facet normal 0.99452 0.104545 0
    outer loop
      vertex 0.42096 -0.0327415 0.75
      vertex 0.417519 0 0.25
      vertex 0.417519 0 0.75
    endloop
  endfacet
  facet normal 0.99452 0.104545 0
    outer loop
      vertex 0.417519 0 0.25
      vertex 0.42096 -0.0327415 0.75
      vertex 0.42096 -0.0327415 0.25
    endloop
  endfacet
  facet normal 0.866026 0.499999 0
    outer loop
      vertex 0.447596 -0.0925646 0.75
      vertex 0.431134 -0.0640526 0.25
      vertex 0.431134 -0.0640526 0.75
    endloop
  endfacet
  facet normal 0.866026 0.499999 0
    outer loop
      vertex 0.431134 -0.0640526 0.25
      vertex 0.447596 -0.0925646 0.75
      vertex 0.447596 -0.0925646 0.25
    endloop
  endfacet
  facet normal -0.207901 0.97815 0
    outer loop
      vertex 0.623664 -0.149773 0.25
      vertex 0.591461 -0.156617 0.75
      vertex 0.623664 -0.149773 0.75
    endloop
  endfacet
  facet normal -0.207901 0.97815 0
    outer loop
      vertex 0.591461 -0.156617 0.75
      vertex 0.623664 -0.149773 0.25
      vertex 0.591461 -0.156617 0.25
    endloop
  endfacet
  facet normal -0.406732 0.913547 0
    outer loop
      vertex 0.65374 -0.136382 0.25
      vertex 0.623664 -0.149773 0.75
      vertex 0.65374 -0.136382 0.75
    endloop
  endfacet
  facet normal -0.406732 0.913547 0
    outer loop
      vertex 0.623664 -0.149773 0.75
      vertex 0.65374 -0.136382 0.25
      vertex 0.623664 -0.149773 0.25
    endloop
  endfacet
  facet normal -0.74313 0.669147 0
    outer loop
      vertex 0.680374 -0.11703 0.25
      vertex 0.702404 -0.0925646 0.75
      vertex 0.702404 -0.0925646 0.25
    endloop
  endfacet
  facet normal -0.74313 0.669147 0
    outer loop
      vertex 0.702404 -0.0925646 0.75
      vertex 0.680374 -0.11703 0.25
      vertex 0.680374 -0.11703 0.75
    endloop
  endfacet
  facet normal 0.587793 0.809012 -0
    outer loop
      vertex 0.49626 -0.136382 0.25
      vertex 0.469625 -0.11703 0.75
      vertex 0.49626 -0.136382 0.75
    endloop
  endfacet
  facet normal 0.587793 0.809012 0
    outer loop
      vertex 0.469625 -0.11703 0.75
      vertex 0.49626 -0.136382 0.25
      vertex 0.469625 -0.11703 0.25
    endloop
  endfacet
  facet normal 0 1 -0
    outer loop
      vertex 0.591461 -0.156617 0.25
      vertex 0.558538 -0.156617 0.75
      vertex 0.591461 -0.156617 0.75
    endloop
  endfacet
  facet normal 0 1 0
    outer loop
      vertex 0.558538 -0.156617 0.75
      vertex 0.591461 -0.156617 0.25
      vertex 0.558538 -0.156617 0.25
    endloop
  endfacet
  facet normal 0 0 1
    outer loop
      vertex 0.729038 0.0327415 0.25
      vertex 0.729038 -0.0327415 0.25
      vertex 0.73248 0 0.25
    endloop
  endfacet
  facet normal 0 0 1
    outer loop
      vertex 0.718865 0.0640526 0.25
      vertex 0.729038 -0.0327415 0.25
      vertex 0.729038 0.0327415 0.25
    endloop
  endfacet
  facet normal 0 0 1
    outer loop
      vertex 0.718865 0.0640526 0.25
      vertex 0.718865 -0.0640526 0.25
      vertex 0.729038 -0.0327415 0.25
    endloop
  endfacet
  facet normal 0 0 1
    outer loop
      vertex 0.702404 0.0925646 0.25
      vertex 0.718865 -0.0640526 0.25
      vertex 0.718865 0.0640526 0.25
    endloop
  endfacet
  facet normal 0 0 1
    outer loop
      vertex 0.702404 0.0925646 0.25
      vertex 0.702404 -0.0925646 0.25
      vertex 0.718865 -0.0640526 0.25
    endloop
  endfacet
  facet normal 0 0 1
    outer loop
      vertex 0.680374 0.11703 0.25
      vertex 0.702404 -0.0925646 0.25
      vertex 0.702404 0.0925646 0.25
    endloop
  endfacet
  facet normal 0 0 1
    outer loop
      vertex 0.680374 0.11703 0.25
      vertex 0.680374 -0.11703 0.25
      vertex 0.702404 -0.0925646 0.25
    endloop
  endfacet
  facet normal 0 0 1
    outer loop
      vertex 0.65374 0.136382 0.25
      vertex 0.680374 -0.11703 0.25
      vertex 0.680374 0.11703 0.25
    endloop
  endfacet
  facet normal 0 0 1
    outer loop
      vertex 0.65374 0.136382 0.25
      vertex 0.65374 -0.136382 0.25
      vertex 0.680374 -0.11703 0.25
    endloop
  endfacet
  facet normal 0 0 1
    outer loop
      vertex 0.623664 0.149773 0.25
      vertex 0.65374 -0.136382 0.25
      vertex 0.65374 0.136382 0.25
    endloop
  endfacet
  facet normal 0 0 1
    outer loop
      vertex 0.623664 0.149773 0.25
      vertex 0.623664 -0.149773 0.25
      vertex 0.65374 -0.136382 0.25
    endloop
  endfacet
  facet normal 0 0 1
    outer loop
      vertex 0.591461 0.156617 0.25
      vertex 0.623664 -0.149773 0.25
      vertex 0.623664 0.149773 0.25
    endloop
  endfacet
  facet normal 0 0 1
    outer loop
      vertex 0.591461 0.156617 0.25
      vertex 0.591461 -0.156617 0.25
      vertex 0.623664 -0.149773 0.25
    endloop
  endfacet
  facet normal -0 0 1
    outer loop
      vertex 0.558538 0.156617 0.25
      vertex 0.591461 -0.156617 0.25
      vertex 0.591461 0.156617 0.25
    endloop
  endfacet
  facet normal 0 0 1
    outer loop
      vertex 0.558538 0.156617 0.25
      vertex 0.558538 -0.156617 0.25
      vertex 0.591461 -0.156617 0.25
    endloop
  endfacet
  facet normal -0 0 1
    outer loop
      vertex 0.526336 0.149773 0.25
      vertex 0.558538 -0.156617 0.25
      vertex 0.558538 0.156617 0.25
    endloop
  endfacet
  facet normal 0 0 1
    outer loop
      vertex 0.526336 0.149773 0.25
      vertex 0.526336 -0.149773 0.25
      vertex 0.558538 -0.156617 0.25
    endloop
  endfacet
  facet normal -0 0 1
    outer loop
      vertex 0.49626 0.136382 0.25
      vertex 0.526336 -0.149773 0.25
      vertex 0.526336 0.149773 0.25
    endloop
  endfacet
  facet normal 0 0 1
    outer loop
      vertex 0.49626 0.136382 0.25
      vertex 0.49626 -0.136382 0.25
      vertex 0.526336 -0.149773 0.25
    endloop
  endfacet
  facet normal -0 0 1
    outer loop
      vertex 0.469625 0.11703 0.25
      vertex 0.49626 -0.136382 0.25
      vertex 0.49626 0.136382 0.25
    endloop
  endfacet
  facet normal 0 0 1
    outer loop
      vertex 0.469625 0.11703 0.25
      vertex 0.469625 -0.11703 0.25
      vertex 0.49626 -0.136382 0.25
    endloop
  endfacet
  facet normal -0 0 1
    outer loop
      vertex 0.447596 0.0925646 0.25
      vertex 0.469625 -0.11703 0.25
      vertex 0.469625 0.11703 0.25
    endloop
  endfacet
  facet normal 0 0 1
    outer loop
      vertex 0.447596 0.0925646 0.25
      vertex 0.447596 -0.0925646 0.25
      vertex 0.469625 -0.11703 0.25
    endloop
  endfacet
  facet normal -0 0 1
    outer loop
      vertex 0.431134 0.0640526 0.25
      vertex 0.447596 -0.0925646 0.25
      vertex 0.447596 0.0925646 0.25
    endloop
  endfacet
  facet normal 0 0 1
    outer loop
      vertex 0.431134 0.0640526 0.25
      vertex 0.431134 -0.0640526 0.25
      vertex 0.447596 -0.0925646 0.25
    endloop
  endfacet
  facet normal -0 0 1
    outer loop
      vertex 0.42096 0.0327415 0.25
      vertex 0.431134 -0.0640526 0.25
      vertex 0.431134 0.0640526 0.25
    endloop
  endfacet
  facet normal 0 0 1
    outer loop
      vertex 0.42096 0.0327415 0.25
      vertex 0.42096 -0.0327415 0.25
      vertex 0.431134 -0.0640526 0.25
    endloop
  endfacet
  facet normal 0 -0 1
    outer loop
      vertex 0.42096 -0.0327415 0.25
      vertex 0.42096 0.0327415 0.25
      vertex 0.417519 0 0.25
    endloop
  endfacet
  facet normal 0.951055 0.309023 0
    outer loop
      vertex 0.431134 -0.0640526 0.75
      vertex 0.42096 -0.0327415 0.25
      vertex 0.42096 -0.0327415 0.75
    endloop
  endfacet
  facet normal 0.951055 0.309023 0
    outer loop
      vertex 0.42096 -0.0327415 0.25
      vertex 0.431134 -0.0640526 0.75
      vertex 0.431134 -0.0640526 0.25
    endloop
  endfacet
  facet normal 0.743144 0.669131 0
    outer loop
      vertex 0.469625 -0.11703 0.75
      vertex 0.447596 -0.0925646 0.25
      vertex 0.447596 -0.0925646 0.75
    endloop
  endfacet
  facet normal 0.743144 0.669131 0
    outer loop
      vertex 0.447596 -0.0925646 0.25
      vertex 0.469625 -0.11703 0.75
      vertex 0.469625 -0.11703 0.25
    endloop
  endfacet
  facet normal 0.406732 0.913547 -0
    outer loop
      vertex 0.526336 -0.149773 0.25
      vertex 0.49626 -0.136382 0.75
      vertex 0.526336 -0.149773 0.75
    endloop
  endfacet
  facet normal 0.406732 0.913547 0
    outer loop
      vertex 0.49626 -0.136382 0.75
      vertex 0.526336 -0.149773 0.25
      vertex 0.49626 -0.136382 0.25
    endloop
  endfacet
  facet normal -0.99452 -0.104545 0
    outer loop
      vertex -0.417519 0 0.25
      vertex -0.42096 0.0327415 0.75
      vertex -0.42096 0.0327415 0.25
    endloop
  endfacet
  facet normal -0.99452 -0.104545 0
    outer loop
      vertex -0.42096 0.0327415 0.75
      vertex -0.417519 0 0.25
      vertex -0.417519 0 0.75
    endloop
  endfacet
  facet normal 0.99452 -0.104545 0
    outer loop
      vertex -0.73248 0 0.75
      vertex -0.729038 0.0327415 0.25
      vertex -0.729038 0.0327415 0.75
    endloop
  endfacet
  facet normal 0.99452 -0.104545 0
    outer loop
      vertex -0.729038 0.0327415 0.25
      vertex -0.73248 0 0.75
      vertex -0.73248 0 0.25
    endloop
  endfacet
  facet normal 0 -1 0
    outer loop
      vertex -0.591461 0.156617 0.25
      vertex -0.558538 0.156617 0.75
      vertex -0.591461 0.156617 0.75
    endloop
  endfacet
  facet normal 0 -1 -0
    outer loop
      vertex -0.558538 0.156617 0.75
      vertex -0.591461 0.156617 0.25
      vertex -0.558538 0.156617 0.25
    endloop
  endfacet
  facet normal 0 1 -0
    outer loop
      vertex -0.558538 -0.156617 0.25
      vertex -0.591461 -0.156617 0.75
      vertex -0.558538 -0.156617 0.75
    endloop
  endfacet
  facet normal 0 1 0
    outer loop
      vertex -0.591461 -0.156617 0.75
      vertex -0.558538 -0.156617 0.25
      vertex -0.591461 -0.156617 0.25
    endloop
  endfacet
  facet normal -0.587793 -0.809012 0
    outer loop
      vertex -0.49626 0.136382 0.25
      vertex -0.469625 0.11703 0.75
      vertex -0.49626 0.136382 0.75
    endloop
  endfacet
  facet normal -0.587793 -0.809012 -0
    outer loop
      vertex -0.469625 0.11703 0.75
      vertex -0.49626 0.136382 0.25
      vertex -0.469625 0.11703 0.25
    endloop
  endfacet
  facet normal -0.406732 -0.913547 0
    outer loop
      vertex -0.526336 0.149773 0.25
      vertex -0.49626 0.136382 0.75
      vertex -0.526336 0.149773 0.75
    endloop
  endfacet
  facet normal -0.406732 -0.913547 -0
    outer loop
      vertex -0.49626 0.136382 0.75
      vertex -0.526336 0.149773 0.25
      vertex -0.49626 0.136382 0.25
    endloop
  endfacet
  facet normal 0.74313 -0.669147 0
    outer loop
      vertex -0.702404 0.0925646 0.75
      vertex -0.680374 0.11703 0.25
      vertex -0.680374 0.11703 0.75
    endloop
  endfacet
  facet normal 0.74313 -0.669147 0
    outer loop
      vertex -0.680374 0.11703 0.25
      vertex -0.702404 0.0925646 0.75
      vertex -0.702404 0.0925646 0.25
    endloop
  endfacet
  facet normal 0.866026 -0.499999 0
    outer loop
      vertex -0.718865 0.0640526 0.75
      vertex -0.702404 0.0925646 0.25
      vertex -0.702404 0.0925646 0.75
    endloop
  endfacet
  facet normal 0.866026 -0.499999 0
    outer loop
      vertex -0.702404 0.0925646 0.25
      vertex -0.718865 0.0640526 0.75
      vertex -0.718865 0.0640526 0.25
    endloop
  endfacet
  facet normal 0.406732 -0.913547 0
    outer loop
      vertex -0.65374 0.136382 0.25
      vertex -0.623664 0.149773 0.75
      vertex -0.65374 0.136382 0.75
    endloop
  endfacet
  facet normal 0.406732 -0.913547 0
    outer loop
      vertex -0.623664 0.149773 0.75
      vertex -0.65374 0.136382 0.25
      vertex -0.623664 0.149773 0.25
    endloop
  endfacet
  facet normal -0.951055 0.309023 0
    outer loop
      vertex -0.431134 -0.0640526 0.25
      vertex -0.42096 -0.0327415 0.75
      vertex -0.42096 -0.0327415 0.25
    endloop
  endfacet
  facet normal -0.951055 0.309023 0
    outer loop
      vertex -0.42096 -0.0327415 0.75
      vertex -0.431134 -0.0640526 0.25
      vertex -0.431134 -0.0640526 0.75
    endloop
  endfacet
  facet normal -0.866026 -0.499999 0
    outer loop
      vertex -0.431134 0.0640526 0.25
      vertex -0.447596 0.0925646 0.75
      vertex -0.447596 0.0925646 0.25
    endloop
  endfacet
  facet normal -0.866026 -0.499999 0
    outer loop
      vertex -0.447596 0.0925646 0.75
      vertex -0.431134 0.0640526 0.25
      vertex -0.431134 0.0640526 0.75
    endloop
  endfacet
  facet normal -0.951055 -0.309023 0
    outer loop
      vertex -0.42096 0.0327415 0.25
      vertex -0.431134 0.0640526 0.75
      vertex -0.431134 0.0640526 0.25
    endloop
  endfacet
  facet normal -0.951055 -0.309023 0
    outer loop
      vertex -0.431134 0.0640526 0.75
      vertex -0.42096 0.0327415 0.25
      vertex -0.42096 0.0327415 0.75
    endloop
  endfacet
  facet normal -0.743144 -0.669131 0
    outer loop
      vertex -0.447596 0.0925646 0.25
      vertex -0.469625 0.11703 0.75
      vertex -0.469625 0.11703 0.25
    endloop
  endfacet
  facet normal -0.743144 -0.669131 0
    outer loop
      vertex -0.469625 0.11703 0.75
      vertex -0.447596 0.0925646 0.25
      vertex -0.447596 0.0925646 0.75
    endloop
  endfacet
  facet normal -0.207901 -0.97815 0
    outer loop
      vertex -0.558538 0.156617 0.25
      vertex -0.526336 0.149773 0.75
      vertex -0.558538 0.156617 0.75
    endloop
  endfacet
  facet normal -0.207901 -0.97815 -0
    outer loop
      vertex -0.526336 0.149773 0.75
      vertex -0.558538 0.156617 0.25
      vertex -0.526336 0.149773 0.25
    endloop
  endfacet
  facet normal 0.951063 -0.308997 0
    outer loop
      vertex -0.729038 0.0327415 0.75
      vertex -0.718865 0.0640526 0.25
      vertex -0.718865 0.0640526 0.75
    endloop
  endfacet
  facet normal 0.951063 -0.308997 0
    outer loop
      vertex -0.718865 0.0640526 0.25
      vertex -0.729038 0.0327415 0.75
      vertex -0.729038 0.0327415 0.25
    endloop
  endfacet
  facet normal 0.587806 -0.809002 0
    outer loop
      vertex -0.680374 0.11703 0.25
      vertex -0.65374 0.136382 0.75
      vertex -0.680374 0.11703 0.75
    endloop
  endfacet
  facet normal 0.587806 -0.809002 0
    outer loop
      vertex -0.65374 0.136382 0.75
      vertex -0.680374 0.11703 0.25
      vertex -0.65374 0.136382 0.25
    endloop
  endfacet
  facet normal 0.207901 -0.97815 0
    outer loop
      vertex -0.623664 0.149773 0.25
      vertex -0.591461 0.156617 0.75
      vertex -0.623664 0.149773 0.75
    endloop
  endfacet
  facet normal 0.207901 -0.97815 0
    outer loop
      vertex -0.591461 0.156617 0.75
      vertex -0.623664 0.149773 0.25
      vertex -0.591461 0.156617 0.25
    endloop
  endfacet
  facet normal -0.99452 0.104545 0
    outer loop
      vertex -0.42096 -0.0327415 0.25
      vertex -0.417519 0 0.75
      vertex -0.417519 0 0.25
    endloop
  endfacet
  facet normal -0.99452 0.104545 0
    outer loop
      vertex -0.417519 0 0.75
      vertex -0.42096 -0.0327415 0.25
      vertex -0.42096 -0.0327415 0.75
    endloop
  endfacet
  facet normal 0 0 1
    outer loop
      vertex -0.42096 0.0327415 0.25
      vertex -0.42096 -0.0327415 0.25
      vertex -0.417519 0 0.25
    endloop
  endfacet
  facet normal 0 0 1
    outer loop
      vertex -0.431134 0.0640526 0.25
      vertex -0.42096 -0.0327415 0.25
      vertex -0.42096 0.0327415 0.25
    endloop
  endfacet
  facet normal 0 0 1
    outer loop
      vertex -0.431134 0.0640526 0.25
      vertex -0.431134 -0.0640526 0.25
      vertex -0.42096 -0.0327415 0.25
    endloop
  endfacet
  facet normal 0 0 1
    outer loop
      vertex -0.447596 0.0925646 0.25
      vertex -0.431134 -0.0640526 0.25
      vertex -0.431134 0.0640526 0.25
    endloop
  endfacet
  facet normal 0 0 1
    outer loop
      vertex -0.447596 0.0925646 0.25
      vertex -0.447596 -0.0925646 0.25
      vertex -0.431134 -0.0640526 0.25
    endloop
  endfacet
  facet normal 0 0 1
    outer loop
      vertex -0.469625 0.11703 0.25
      vertex -0.447596 -0.0925646 0.25
      vertex -0.447596 0.0925646 0.25
    endloop
  endfacet
  facet normal 0 0 1
    outer loop
      vertex -0.469625 0.11703 0.25
      vertex -0.469625 -0.11703 0.25
      vertex -0.447596 -0.0925646 0.25
    endloop
  endfacet
  facet normal 0 0 1
    outer loop
      vertex -0.49626 0.136382 0.25
      vertex -0.469625 -0.11703 0.25
      vertex -0.469625 0.11703 0.25
    endloop
  endfacet
  facet normal 0 0 1
    outer loop
      vertex -0.49626 0.136382 0.25
      vertex -0.49626 -0.136382 0.25
      vertex -0.469625 -0.11703 0.25
    endloop
  endfacet
  facet normal 0 0 1
    outer loop
      vertex -0.526336 0.149773 0.25
      vertex -0.49626 -0.136382 0.25
      vertex -0.49626 0.136382 0.25
    endloop
  endfacet
  facet normal 0 0 1
    outer loop
      vertex -0.526336 0.149773 0.25
      vertex -0.526336 -0.149773 0.25
      vertex -0.49626 -0.136382 0.25
    endloop
  endfacet
  facet normal 0 0 1
    outer loop
      vertex -0.558538 0.156617 0.25
      vertex -0.526336 -0.149773 0.25
      vertex -0.526336 0.149773 0.25
    endloop
  endfacet
  facet normal 0 0 1
    outer loop
      vertex -0.558538 0.156617 0.25
      vertex -0.558538 -0.156617 0.25
      vertex -0.526336 -0.149773 0.25
    endloop
  endfacet
  facet normal -0 0 1
    outer loop
      vertex -0.591461 0.156617 0.25
      vertex -0.558538 -0.156617 0.25
      vertex -0.558538 0.156617 0.25
    endloop
  endfacet
  facet normal 0 0 1
    outer loop
      vertex -0.591461 0.156617 0.25
      vertex -0.591461 -0.156617 0.25
      vertex -0.558538 -0.156617 0.25
    endloop
  endfacet
  facet normal -0 0 1
    outer loop
      vertex -0.623664 0.149773 0.25
      vertex -0.591461 -0.156617 0.25
      vertex -0.591461 0.156617 0.25
    endloop
  endfacet
  facet normal 0 0 1
    outer loop
      vertex -0.623664 0.149773 0.25
      vertex -0.623664 -0.149773 0.25
      vertex -0.591461 -0.156617 0.25
    endloop
  endfacet
  facet normal -0 0 1
    outer loop
      vertex -0.65374 0.136382 0.25
      vertex -0.623664 -0.149773 0.25
      vertex -0.623664 0.149773 0.25
    endloop
  endfacet
  facet normal 0 0 1
    outer loop
      vertex -0.65374 0.136382 0.25
      vertex -0.65374 -0.136382 0.25
      vertex -0.623664 -0.149773 0.25
    endloop
  endfacet
  facet normal -0 0 1
    outer loop
      vertex -0.680374 0.11703 0.25
      vertex -0.65374 -0.136382 0.25
      vertex -0.65374 0.136382 0.25
    endloop
  endfacet
  facet normal 0 0 1
    outer loop
      vertex -0.680374 0.11703 0.25
      vertex -0.680374 -0.11703 0.25
      vertex -0.65374 -0.136382 0.25
    endloop
  endfacet
  facet normal -0 0 1
    outer loop
      vertex -0.702404 0.0925646 0.25
      vertex -0.680374 -0.11703 0.25
      vertex -0.680374 0.11703 0.25
    endloop
  endfacet
  facet normal 0 0 1
    outer loop
      vertex -0.702404 0.0925646 0.25
      vertex -0.702404 -0.0925646 0.25
      vertex -0.680374 -0.11703 0.25
    endloop
  endfacet
  facet normal -0 0 1
    outer loop
      vertex -0.718865 0.0640526 0.25
      vertex -0.702404 -0.0925646 0.25
      vertex -0.702404 0.0925646 0.25
    endloop
  endfacet
  facet normal 0 0 1
    outer loop
      vertex -0.718865 0.0640526 0.25
      vertex -0.718865 -0.0640526 0.25
      vertex -0.702404 -0.0925646 0.25
    endloop
  endfacet
  facet normal -0 0 1
    outer loop
      vertex -0.729038 0.0327415 0.25
      vertex -0.718865 -0.0640526 0.25
      vertex -0.718865 0.0640526 0.25
    endloop
  endfacet
  facet normal 0 0 1
    outer loop
      vertex -0.729038 0.0327415 0.25
      vertex -0.729038 -0.0327415 0.25
      vertex -0.718865 -0.0640526 0.25
    endloop
  endfacet
  facet normal 0 -0 1
    outer loop
      vertex -0.729038 -0.0327415 0.25
      vertex -0.729038 0.0327415 0.25
      vertex -0.73248 0 0.25
    endloop
  endfacet
  facet normal -0.207901 0.97815 0
    outer loop
      vertex -0.526336 -0.149773 0.25
      vertex -0.558538 -0.156617 0.75
      vertex -0.526336 -0.149773 0.75
    endloop
  endfacet
  facet normal -0.207901 0.97815 0
    outer loop
      vertex -0.558538 -0.156617 0.75
      vertex -0.526336 -0.149773 0.25
      vertex -0.558538 -0.156617 0.25
    endloop
  endfacet
  facet normal -0.866026 0.499999 0
    outer loop
      vertex -0.447596 -0.0925646 0.25
      vertex -0.431134 -0.0640526 0.75
      vertex -0.431134 -0.0640526 0.25
    endloop
  endfacet
  facet normal -0.866026 0.499999 0
    outer loop
      vertex -0.431134 -0.0640526 0.75
      vertex -0.447596 -0.0925646 0.25
      vertex -0.447596 -0.0925646 0.75
    endloop
  endfacet
  facet normal 0.866026 0.499999 0
    outer loop
      vertex -0.702404 -0.0925646 0.75
      vertex -0.718865 -0.0640526 0.25
      vertex -0.718865 -0.0640526 0.75
    endloop
  endfacet
  facet normal 0.866026 0.499999 0
    outer loop
      vertex -0.718865 -0.0640526 0.25
      vertex -0.702404 -0.0925646 0.75
      vertex -0.702404 -0.0925646 0.25
    endloop
  endfacet
  facet normal 0.99452 0.104545 0
    outer loop
      vertex -0.729038 -0.0327415 0.75
      vertex -0.73248 0 0.25
      vertex -0.73248 0 0.75
    endloop
  endfacet
  facet normal 0.99452 0.104545 0
    outer loop
      vertex -0.73248 0 0.25
      vertex -0.729038 -0.0327415 0.75
      vertex -0.729038 -0.0327415 0.25
    endloop
  endfacet
  facet normal -0.587793 0.809012 0
    outer loop
      vertex -0.469625 -0.11703 0.25
      vertex -0.49626 -0.136382 0.75
      vertex -0.469625 -0.11703 0.75
    endloop
  endfacet
  facet normal -0.587793 0.809012 0
    outer loop
      vertex -0.49626 -0.136382 0.75
      vertex -0.469625 -0.11703 0.25
      vertex -0.49626 -0.136382 0.25
    endloop
  endfacet
  facet normal -0.406732 0.913547 0
    outer loop
      vertex -0.49626 -0.136382 0.25
      vertex -0.526336 -0.149773 0.75
      vertex -0.49626 -0.136382 0.75
    endloop
  endfacet
  facet normal -0.406732 0.913547 0
    outer loop
      vertex -0.526336 -0.149773 0.75
      vertex -0.49626 -0.136382 0.25
      vertex -0.526336 -0.149773 0.25
    endloop
  endfacet
  facet normal 0.74313 0.669147 0
    outer loop
      vertex -0.680374 -0.11703 0.75
      vertex -0.702404 -0.0925646 0.25
      vertex -0.702404 -0.0925646 0.75
    endloop
  endfacet
  facet normal 0.74313 0.669147 0
    outer loop
      vertex -0.702404 -0.0925646 0.25
      vertex -0.680374 -0.11703 0.75
      vertex -0.680374 -0.11703 0.25
    endloop
  endfacet
  facet normal 0.951063 0.308997 0
    outer loop
      vertex -0.718865 -0.0640526 0.75
      vertex -0.729038 -0.0327415 0.25
      vertex -0.729038 -0.0327415 0.75
    endloop
  endfacet
  facet normal 0.951063 0.308997 0
    outer loop
      vertex -0.729038 -0.0327415 0.25
      vertex -0.718865 -0.0640526 0.75
      vertex -0.718865 -0.0640526 0.25
    endloop
  endfacet
  facet normal -0.743144 0.669131 0
    outer loop
      vertex -0.469625 -0.11703 0.25
      vertex -0.447596 -0.0925646 0.75
      vertex -0.447596 -0.0925646 0.25
    endloop
  endfacet
  facet normal -0.743144 0.669131 0
    outer loop
      vertex -0.447596 -0.0925646 0.75
      vertex -0.469625 -0.11703 0.25
      vertex -0.469625 -0.11703 0.75
    endloop
  endfacet
  facet normal 0.406732 0.913547 -0
    outer loop
      vertex -0.623664 -0.149773 0.25
      vertex -0.65374 -0.136382 0.75
      vertex -0.623664 -0.149773 0.75
    endloop
  endfacet
  facet normal 0.406732 0.913547 0
    outer loop
      vertex -0.65374 -0.136382 0.75
      vertex -0.623664 -0.149773 0.25
      vertex -0.65374 -0.136382 0.25
    endloop
  endfacet
  facet normal 0.587806 0.809002 -0
    outer loop
      vertex -0.65374 -0.136382 0.25
      vertex -0.680374 -0.11703 0.75
      vertex -0.65374 -0.136382 0.75
    endloop
  endfacet
  facet normal 0.587806 0.809002 0
    outer loop
      vertex -0.680374 -0.11703 0.75
      vertex -0.65374 -0.136382 0.25
      vertex -0.680374 -0.11703 0.25
    endloop
  endfacet
  facet normal 0.207901 0.97815 -0
    outer loop
      vertex -0.591461 -0.156617 0.25
      vertex -0.623664 -0.149773 0.75
      vertex -0.591461 -0.156617 0.75
    endloop
  endfacet
  facet normal 0.207901 0.97815 0
    outer loop
      vertex -0.623664 -0.149773 0.75
      vertex -0.591461 -0.156617 0.25
      vertex -0.623664 -0.149773 0.25
    endloop
  endfacet
  facet normal -0.994521 -0.104534 0
    outer loop
      vertex 0.2 0 0.25
      vertex 0.195629 0.0415821 0.75
      vertex 0.195629 0.0415821 0.25
    endloop
  endfacet
  facet normal -0.994521 -0.104534 0
    outer loop
      vertex 0.195629 0.0415821 0.75
      vertex 0.2 0 0.25
      vertex 0.2 0 0.75
    endloop
  endfacet
  facet normal 0.994521 -0.104534 0
    outer loop
      vertex -0.2 0 0.75
      vertex -0.195629 0.0415821 0.25
      vertex -0.195629 0.0415821 0.75
    endloop
  endfacet
  facet normal 0.994521 -0.104534 0
    outer loop
      vertex -0.195629 0.0415821 0.25
      vertex -0.2 0 0.75
      vertex -0.2 0 0.25
    endloop
  endfacet
  facet normal 0 -1 0
    outer loop
      vertex -0.0209055 0.198904 0.25
      vertex 0.0209055 0.198904 0.75
      vertex -0.0209055 0.198904 0.75
    endloop
  endfacet
  facet normal 0 -1 -0
    outer loop
      vertex 0.0209055 0.198904 0.75
      vertex -0.0209055 0.198904 0.25
      vertex 0.0209055 0.198904 0.25
    endloop
  endfacet
  facet normal 0 1 -0
    outer loop
      vertex 0.0209055 -0.198904 0.25
      vertex -0.0209055 -0.198904 0.75
      vertex 0.0209055 -0.198904 0.75
    endloop
  endfacet
  facet normal 0 1 0
    outer loop
      vertex -0.0209055 -0.198904 0.75
      vertex 0.0209055 -0.198904 0.25
      vertex -0.0209055 -0.198904 0.25
    endloop
  endfacet
  facet normal -0.587789 -0.809014 0
    outer loop
      vertex 0.0999994 0.173204 0.25
      vertex 0.133825 0.148628 0.75
      vertex 0.0999994 0.173204 0.75
    endloop
  endfacet
  facet normal -0.587789 -0.809014 -0
    outer loop
      vertex 0.133825 0.148628 0.75
      vertex 0.0999994 0.173204 0.25
      vertex 0.133825 0.148628 0.25
    endloop
  endfacet
  facet normal -0.40675 -0.91354 0
    outer loop
      vertex 0.0618029 0.190211 0.25
      vertex 0.0999994 0.173204 0.75
      vertex 0.0618029 0.190211 0.75
    endloop
  endfacet
  facet normal -0.40675 -0.91354 -0
    outer loop
      vertex 0.0999994 0.173204 0.75
      vertex 0.0618029 0.190211 0.25
      vertex 0.0999994 0.173204 0.25
    endloop
  endfacet
  facet normal 0.743134 -0.669142 0
    outer loop
      vertex -0.161803 0.117557 0.75
      vertex -0.133825 0.148628 0.25
      vertex -0.133825 0.148628 0.75
    endloop
  endfacet
  facet normal 0.743134 -0.669142 0
    outer loop
      vertex -0.133825 0.148628 0.25
      vertex -0.161803 0.117557 0.75
      vertex -0.161803 0.117557 0.25
    endloop
  endfacet
  facet normal 0.40675 -0.91354 0
    outer loop
      vertex -0.0999994 0.173204 0.25
      vertex -0.0618029 0.190211 0.75
      vertex -0.0999994 0.173204 0.75
    endloop
  endfacet
  facet normal 0.40675 -0.91354 0
    outer loop
      vertex -0.0618029 0.190211 0.75
      vertex -0.0999994 0.173204 0.25
      vertex -0.0618029 0.190211 0.25
    endloop
  endfacet
  facet normal -0.951056 0.30902 0
    outer loop
      vertex 0.182709 -0.0813465 0.25
      vertex 0.195629 -0.0415821 0.75
      vertex 0.195629 -0.0415821 0.25
    endloop
  endfacet
  facet normal -0.951056 0.30902 0
    outer loop
      vertex 0.195629 -0.0415821 0.75
      vertex 0.182709 -0.0813465 0.25
      vertex 0.182709 -0.0813465 0.75
    endloop
  endfacet
  facet normal -0.866029 -0.499993 0
    outer loop
      vertex 0.182709 0.0813465 0.25
      vertex 0.161803 0.117557 0.75
      vertex 0.161803 0.117557 0.25
    endloop
  endfacet
  facet normal -0.866029 -0.499993 0
    outer loop
      vertex 0.161803 0.117557 0.75
      vertex 0.182709 0.0813465 0.25
      vertex 0.182709 0.0813465 0.75
    endloop
  endfacet
  facet normal -0.951056 -0.30902 0
    outer loop
      vertex 0.195629 0.0415821 0.25
      vertex 0.182709 0.0813465 0.75
      vertex 0.182709 0.0813465 0.25
    endloop
  endfacet
  facet normal -0.951056 -0.30902 0
    outer loop
      vertex 0.182709 0.0813465 0.75
      vertex 0.195629 0.0415821 0.25
      vertex 0.195629 0.0415821 0.75
    endloop
  endfacet
  facet normal -0.743134 -0.669142 0
    outer loop
      vertex 0.161803 0.117557 0.25
      vertex 0.133825 0.148628 0.75
      vertex 0.133825 0.148628 0.25
    endloop
  endfacet
  facet normal -0.743134 -0.669142 0
    outer loop
      vertex 0.133825 0.148628 0.75
      vertex 0.161803 0.117557 0.25
      vertex 0.161803 0.117557 0.75
    endloop
  endfacet
  facet normal -0.207906 -0.978149 0
    outer loop
      vertex 0.0209055 0.198904 0.25
      vertex 0.0618029 0.190211 0.75
      vertex 0.0209055 0.198904 0.75
    endloop
  endfacet
  facet normal -0.207906 -0.978149 -0
    outer loop
      vertex 0.0618029 0.190211 0.75
      vertex 0.0209055 0.198904 0.25
      vertex 0.0618029 0.190211 0.25
    endloop
  endfacet
  facet normal 0.866029 -0.499993 0
    outer loop
      vertex -0.182709 0.0813465 0.75
      vertex -0.161803 0.117557 0.25
      vertex -0.161803 0.117557 0.75
    endloop
  endfacet
  facet normal 0.866029 -0.499993 0
    outer loop
      vertex -0.161803 0.117557 0.25
      vertex -0.182709 0.0813465 0.75
      vertex -0.182709 0.0813465 0.25
    endloop
  endfacet
  facet normal 0.951056 -0.30902 0
    outer loop
      vertex -0.195629 0.0415821 0.75
      vertex -0.182709 0.0813465 0.25
      vertex -0.182709 0.0813465 0.75
    endloop
  endfacet
  facet normal 0.951056 -0.30902 0
    outer loop
      vertex -0.182709 0.0813465 0.25
      vertex -0.195629 0.0415821 0.75
      vertex -0.195629 0.0415821 0.25
    endloop
  endfacet
  facet normal 0.587789 -0.809014 0
    outer loop
      vertex -0.133825 0.148628 0.25
      vertex -0.0999994 0.173204 0.75
      vertex -0.133825 0.148628 0.75
    endloop
  endfacet
  facet normal 0.587789 -0.809014 0
    outer loop
      vertex -0.0999994 0.173204 0.75
      vertex -0.133825 0.148628 0.25
      vertex -0.0999994 0.173204 0.25
    endloop
  endfacet
  facet normal 0.207906 -0.978149 0
    outer loop
      vertex -0.0618029 0.190211 0.25
      vertex -0.0209055 0.198904 0.75
      vertex -0.0618029 0.190211 0.75
    endloop
  endfacet
  facet normal 0.207906 -0.978149 0
    outer loop
      vertex -0.0209055 0.198904 0.75
      vertex -0.0618029 0.190211 0.25
      vertex -0.0209055 0.198904 0.25
    endloop
  endfacet
  facet normal -0.994521 0.104534 0
    outer loop
      vertex 0.195629 -0.0415821 0.25
      vertex 0.2 0 0.75
      vertex 0.2 0 0.25
    endloop
  endfacet
  facet normal -0.994521 0.104534 0
    outer loop
      vertex 0.2 0 0.75
      vertex 0.195629 -0.0415821 0.25
      vertex 0.195629 -0.0415821 0.75
    endloop
  endfacet
  facet normal 0.994521 0.104534 0
    outer loop
      vertex -0.195629 -0.0415821 0.75
      vertex -0.2 0 0.25
      vertex -0.2 0 0.75
    endloop
  endfacet
  facet normal 0.994521 0.104534 0
    outer loop
      vertex -0.2 0 0.25
      vertex -0.195629 -0.0415821 0.75
      vertex -0.195629 -0.0415821 0.25
    endloop
  endfacet
  facet normal -0.207906 0.978149 0
    outer loop
      vertex 0.0618029 -0.190211 0.25
      vertex 0.0209055 -0.198904 0.75
      vertex 0.0618029 -0.190211 0.75
    endloop
  endfacet
  facet normal -0.207906 0.978149 0
    outer loop
      vertex 0.0209055 -0.198904 0.75
      vertex 0.0618029 -0.190211 0.25
      vertex 0.0209055 -0.198904 0.25
    endloop
  endfacet
  facet normal -0.866029 0.499993 0
    outer loop
      vertex 0.161803 -0.117557 0.25
      vertex 0.182709 -0.0813465 0.75
      vertex 0.182709 -0.0813465 0.25
    endloop
  endfacet
  facet normal -0.866029 0.499993 0
    outer loop
      vertex 0.182709 -0.0813465 0.75
      vertex 0.161803 -0.117557 0.25
      vertex 0.161803 -0.117557 0.75
    endloop
  endfacet
  facet normal 0 0 1
    outer loop
      vertex 0.195629 0.0415821 0.25
      vertex 0.195629 -0.0415821 0.25
      vertex 0.2 0 0.25
    endloop
  endfacet
  facet normal 0 0 1
    outer loop
      vertex 0.182709 0.0813465 0.25
      vertex 0.195629 -0.0415821 0.25
      vertex 0.195629 0.0415821 0.25
    endloop
  endfacet
  facet normal 0 0 1
    outer loop
      vertex 0.182709 0.0813465 0.25
      vertex 0.182709 -0.0813465 0.25
      vertex 0.195629 -0.0415821 0.25
    endloop
  endfacet
  facet normal 0 0 1
    outer loop
      vertex 0.161803 0.117557 0.25
      vertex 0.182709 -0.0813465 0.25
      vertex 0.182709 0.0813465 0.25
    endloop
  endfacet
  facet normal 0 0 1
    outer loop
      vertex 0.161803 0.117557 0.25
      vertex 0.161803 -0.117557 0.25
      vertex 0.182709 -0.0813465 0.25
    endloop
  endfacet
  facet normal 0 0 1
    outer loop
      vertex 0.133825 0.148628 0.25
      vertex 0.161803 -0.117557 0.25
      vertex 0.161803 0.117557 0.25
    endloop
  endfacet
  facet normal 0 0 1
    outer loop
      vertex 0.133825 0.148628 0.25
      vertex 0.133825 -0.148628 0.25
      vertex 0.161803 -0.117557 0.25
    endloop
  endfacet
  facet normal 0 0 1
    outer loop
      vertex 0.0999994 0.173204 0.25
      vertex 0.133825 -0.148628 0.25
      vertex 0.133825 0.148628 0.25
    endloop
  endfacet
  facet normal 0 0 1
    outer loop
      vertex 0.0999994 0.173204 0.25
      vertex 0.0999994 -0.173204 0.25
      vertex 0.133825 -0.148628 0.25
    endloop
  endfacet
  facet normal 0 0 1
    outer loop
      vertex 0.0618029 0.190211 0.25
      vertex 0.0999994 -0.173204 0.25
      vertex 0.0999994 0.173204 0.25
    endloop
  endfacet
  facet normal 0 0 1
    outer loop
      vertex 0.0618029 0.190211 0.25
      vertex 0.0618029 -0.190211 0.25
      vertex 0.0999994 -0.173204 0.25
    endloop
  endfacet
  facet normal 0 0 1
    outer loop
      vertex 0.0209055 0.198904 0.25
      vertex 0.0618029 -0.190211 0.25
      vertex 0.0618029 0.190211 0.25
    endloop
  endfacet
  facet normal 0 0 1
    outer loop
      vertex 0.0209055 0.198904 0.25
      vertex 0.0209055 -0.198904 0.25
      vertex 0.0618029 -0.190211 0.25
    endloop
  endfacet
  facet normal -0 0 1
    outer loop
      vertex -0.0209055 0.198904 0.25
      vertex 0.0209055 -0.198904 0.25
      vertex 0.0209055 0.198904 0.25
    endloop
  endfacet
  facet normal 0 0 1
    outer loop
      vertex -0.0209055 0.198904 0.25
      vertex -0.0209055 -0.198904 0.25
      vertex 0.0209055 -0.198904 0.25
    endloop
  endfacet
  facet normal -0 0 1
    outer loop
      vertex -0.0618029 0.190211 0.25
      vertex -0.0209055 -0.198904 0.25
      vertex -0.0209055 0.198904 0.25
    endloop
  endfacet
  facet normal 0 0 1
    outer loop
      vertex -0.0618029 0.190211 0.25
      vertex -0.0618029 -0.190211 0.25
      vertex -0.0209055 -0.198904 0.25
    endloop
  endfacet
  facet normal -0 0 1
    outer loop
      vertex -0.0999994 0.173204 0.25
      vertex -0.0618029 -0.190211 0.25
      vertex -0.0618029 0.190211 0.25
    endloop
  endfacet
  facet normal 0 0 1
    outer loop
      vertex -0.0999994 0.173204 0.25
      vertex -0.0999994 -0.173204 0.25
      vertex -0.0618029 -0.190211 0.25
    endloop
  endfacet
  facet normal -0 0 1
    outer loop
      vertex -0.133825 0.148628 0.25
      vertex -0.0999994 -0.173204 0.25
      vertex -0.0999994 0.173204 0.25
    endloop
  endfacet
  facet normal 0 0 1
    outer loop
      vertex -0.133825 0.148628 0.25
      vertex -0.133825 -0.148628 0.25
      vertex -0.0999994 -0.173204 0.25
    endloop
  endfacet
  facet normal -0 0 1
    outer loop
      vertex -0.161803 0.117557 0.25
      vertex -0.133825 -0.148628 0.25
      vertex -0.133825 0.148628 0.25
    endloop
  endfacet
  facet normal 0 0 1
    outer loop
      vertex -0.161803 0.117557 0.25
      vertex -0.161803 -0.117557 0.25
      vertex -0.133825 -0.148628 0.25
    endloop
  endfacet
  facet normal -0 0 1
    outer loop
      vertex -0.182709 0.0813465 0.25
      vertex -0.161803 -0.117557 0.25
      vertex -0.161803 0.117557 0.25
    endloop
  endfacet
  facet normal 0 0 1
    outer loop
      vertex -0.182709 0.0813465 0.25
      vertex -0.182709 -0.0813465 0.25
      vertex -0.161803 -0.117557 0.25
    endloop
  endfacet
  facet normal -0 0 1
    outer loop
      vertex -0.195629 0.0415821 0.25
      vertex -0.182709 -0.0813465 0.25
      vertex -0.182709 0.0813465 0.25
    endloop
  endfacet
  facet normal 0 0 1
    outer loop
      vertex -0.195629 0.0415821 0.25
      vertex -0.195629 -0.0415821 0.25
      vertex -0.182709 -0.0813465 0.25
    endloop
  endfacet
  facet normal 0 -0 1
    outer loop
      vertex -0.195629 -0.0415821 0.25
      vertex -0.195629 0.0415821 0.25
      vertex -0.2 0 0.25
    endloop
  endfacet
  facet normal -0.587789 0.809014 0
    outer loop
      vertex 0.133825 -0.148628 0.25
      vertex 0.0999994 -0.173204 0.75
      vertex 0.133825 -0.148628 0.75
    endloop
  endfacet
  facet normal -0.587789 0.809014 0
    outer loop
      vertex 0.0999994 -0.173204 0.75
      vertex 0.133825 -0.148628 0.25
      vertex 0.0999994 -0.173204 0.25
    endloop
  endfacet
  facet normal -0.40675 0.91354 0
    outer loop
      vertex 0.0999994 -0.173204 0.25
      vertex 0.0618029 -0.190211 0.75
      vertex 0.0999994 -0.173204 0.75
    endloop
  endfacet
  facet normal -0.40675 0.91354 0
    outer loop
      vertex 0.0618029 -0.190211 0.75
      vertex 0.0999994 -0.173204 0.25
      vertex 0.0618029 -0.190211 0.25
    endloop
  endfacet
  facet normal 0.207906 0.978149 -0
    outer loop
      vertex -0.0209055 -0.198904 0.25
      vertex -0.0618029 -0.190211 0.75
      vertex -0.0209055 -0.198904 0.75
    endloop
  endfacet
  facet normal 0.207906 0.978149 0
    outer loop
      vertex -0.0618029 -0.190211 0.75
      vertex -0.0209055 -0.198904 0.25
      vertex -0.0618029 -0.190211 0.25
    endloop
  endfacet
  facet normal 0.743134 0.669142 0
    outer loop
      vertex -0.133825 -0.148628 0.75
      vertex -0.161803 -0.117557 0.25
      vertex -0.161803 -0.117557 0.75
    endloop
  endfacet
  facet normal 0.743134 0.669142 0
    outer loop
      vertex -0.161803 -0.117557 0.25
      vertex -0.133825 -0.148628 0.75
      vertex -0.133825 -0.148628 0.25
    endloop
  endfacet
  facet normal 0.866029 0.499993 0
    outer loop
      vertex -0.161803 -0.117557 0.75
      vertex -0.182709 -0.0813465 0.25
      vertex -0.182709 -0.0813465 0.75
    endloop
  endfacet
  facet normal 0.866029 0.499993 0
    outer loop
      vertex -0.182709 -0.0813465 0.25
      vertex -0.161803 -0.117557 0.75
      vertex -0.161803 -0.117557 0.25
    endloop
  endfacet
  facet normal 0.951056 0.30902 0
    outer loop
      vertex -0.182709 -0.0813465 0.75
      vertex -0.195629 -0.0415821 0.25
      vertex -0.195629 -0.0415821 0.75
    endloop
  endfacet
  facet normal 0.951056 0.30902 0
    outer loop
      vertex -0.195629 -0.0415821 0.25
      vertex -0.182709 -0.0813465 0.75
      vertex -0.182709 -0.0813465 0.25
    endloop
  endfacet
  facet normal -0.743134 0.669142 0
    outer loop
      vertex 0.133825 -0.148628 0.25
      vertex 0.161803 -0.117557 0.75
      vertex 0.161803 -0.117557 0.25
    endloop
  endfacet
  facet normal -0.743134 0.669142 0
    outer loop
      vertex 0.161803 -0.117557 0.75
      vertex 0.133825 -0.148628 0.25
      vertex 0.133825 -0.148628 0.75
    endloop
  endfacet
  facet normal 0.587789 0.809014 -0
    outer loop
      vertex -0.0999994 -0.173204 0.25
      vertex -0.133825 -0.148628 0.75
      vertex -0.0999994 -0.173204 0.75
    endloop
  endfacet
  facet normal 0.587789 0.809014 0
    outer loop
      vertex -0.133825 -0.148628 0.75
      vertex -0.0999994 -0.173204 0.25
      vertex -0.133825 -0.148628 0.25
    endloop
  endfacet
  facet normal 0.40675 0.91354 -0
    outer loop
      vertex -0.0618029 -0.190211 0.25
      vertex -0.0999994 -0.173204 0.75
      vertex -0.0618029 -0.190211 0.75
    endloop
  endfacet
  facet normal 0.40675 0.91354 0
    outer loop
      vertex -0.0999994 -0.173204 0.75
      vertex -0.0618029 -0.190211 0.25
      vertex -0.0999994 -0.173204 0.25
    endloop
  endfacet
endsolid OpenSCAD_Model
